<mxfile host="app.diagrams.net" modified="2024-05-23T10:44:09.844Z" agent="Mozilla/5.0 (Windows NT 10.0; Win64; x64) AppleWebKit/537.36 (KHTML, like Gecko) Chrome/124.0.0.0 Safari/537.36" etag="J7kyu85qhSlf3Go39rCT" version="24.4.6" type="device" pages="2">
  <diagram name="Page-1" id="T4P2nmR42rPgNOde0ma3">
    <mxGraphModel dx="16924" dy="3480" grid="1" gridSize="10" guides="1" tooltips="1" connect="1" arrows="1" fold="1" page="1" pageScale="1" pageWidth="1654" pageHeight="2336" math="0" shadow="0">
      <root>
        <object label="" id="0">
          <mxCell />
        </object>
        <mxCell id="1" parent="0" />
        <mxCell id="F71kkK3N29jPOHGHF4Ug-2" value="Employee Registartion" style="ellipse;whiteSpace=wrap;html=1;fontSize=20;fontStyle=1;strokeWidth=2;" parent="1" vertex="1">
          <mxGeometry x="-8763.55" y="3230" width="375" height="70" as="geometry" />
        </mxCell>
        <mxCell id="F71kkK3N29jPOHGHF4Ug-8" value="Manage Employee" style="ellipse;whiteSpace=wrap;html=1;fontSize=20;fontStyle=1;strokeWidth=2;" parent="1" vertex="1">
          <mxGeometry x="-8765.619999999999" y="3330" width="375" height="70" as="geometry" />
        </mxCell>
        <mxCell id="F71kkK3N29jPOHGHF4Ug-11" value="update Employee" style="ellipse;whiteSpace=wrap;html=1;fontSize=20;fontStyle=1;strokeWidth=2;" parent="1" vertex="1">
          <mxGeometry x="-8440.48" y="3470" width="140" height="60" as="geometry" />
        </mxCell>
        <mxCell id="F71kkK3N29jPOHGHF4Ug-13" value="delete Employee" style="ellipse;whiteSpace=wrap;html=1;fontSize=20;fontStyle=1;strokeWidth=2;" parent="1" vertex="1">
          <mxGeometry x="-8838.829999999998" y="3450" width="140" height="70" as="geometry" />
        </mxCell>
        <mxCell id="F71kkK3N29jPOHGHF4Ug-15" value="Search Employee" style="ellipse;whiteSpace=wrap;html=1;fontSize=20;fontStyle=1;strokeWidth=2;" parent="1" vertex="1">
          <mxGeometry x="-8638.900000000001" y="3465" width="140" height="70" as="geometry" />
        </mxCell>
        <mxCell id="F71kkK3N29jPOHGHF4Ug-22" value="Add Salary" style="ellipse;whiteSpace=wrap;html=1;fontSize=20;fontStyle=1;strokeWidth=2;" parent="1" vertex="1">
          <mxGeometry x="-8738.659999999998" y="3820" width="375" height="70" as="geometry" />
        </mxCell>
        <mxCell id="F71kkK3N29jPOHGHF4Ug-24" value="Arrange Leaves" style="ellipse;whiteSpace=wrap;html=1;fontSize=20;fontStyle=1;strokeWidth=2;" parent="1" vertex="1">
          <mxGeometry x="-8755.839999999998" y="3550" width="375" height="70" as="geometry" />
        </mxCell>
        <mxCell id="F71kkK3N29jPOHGHF4Ug-37" value="Employee&lt;br style=&quot;font-size: 20px;&quot;&gt;" style="shape=umlActor;verticalLabelPosition=bottom;verticalAlign=top;html=1;fontSize=20;fontStyle=1;strokeWidth=2;" parent="1" vertex="1">
          <mxGeometry x="-9488.630000000001" y="630" width="50" height="90" as="geometry" />
        </mxCell>
        <mxCell id="F71kkK3N29jPOHGHF4Ug-40" value="Apply leaves" style="ellipse;whiteSpace=wrap;html=1;fontSize=20;fontStyle=1;strokeWidth=2;" parent="1" vertex="1">
          <mxGeometry x="-8845.11" y="660" width="375" height="70" as="geometry" />
        </mxCell>
        <mxCell id="F71kkK3N29jPOHGHF4Ug-41" value="Check leave Approval" style="ellipse;whiteSpace=wrap;html=1;fontSize=20;fontStyle=1;strokeWidth=2;" parent="1" vertex="1">
          <mxGeometry x="-8850.23" y="1120" width="375" height="70" as="geometry" />
        </mxCell>
        <mxCell id="F71kkK3N29jPOHGHF4Ug-43" value="Update Profile" style="ellipse;whiteSpace=wrap;html=1;fontSize=20;fontStyle=1;strokeWidth=2;" parent="1" vertex="1">
          <mxGeometry x="-8808.369999999999" y="2000" width="375" height="70" as="geometry" />
        </mxCell>
        <mxCell id="Kiu_sgeR9yTWTMrZRUj6-10" value="Forget Password" style="ellipse;whiteSpace=wrap;html=1;fontSize=20;fontStyle=1;strokeWidth=2;" parent="1" vertex="1">
          <mxGeometry x="-8838.83" y="1440" width="375" height="70" as="geometry" />
        </mxCell>
        <mxCell id="Kiu_sgeR9yTWTMrZRUj6-15" value="Manager&lt;br style=&quot;font-size: 20px;&quot;&gt;" style="shape=umlActor;verticalLabelPosition=bottom;verticalAlign=top;html=1;fontSize=20;fontStyle=1;strokeWidth=2;" parent="1" vertex="1">
          <mxGeometry x="-9690" y="5435" width="40" height="80" as="geometry" />
        </mxCell>
        <mxCell id="Kiu_sgeR9yTWTMrZRUj6-25" value="Check Leave Request" style="ellipse;whiteSpace=wrap;html=1;fontSize=20;fontStyle=1;strokeWidth=2;" parent="1" vertex="1">
          <mxGeometry x="-8815.48" y="5090" width="375" height="75" as="geometry" />
        </mxCell>
        <mxCell id="Kiu_sgeR9yTWTMrZRUj6-27" value="Approve leave" style="ellipse;whiteSpace=wrap;html=1;fontSize=20;fontStyle=1;strokeWidth=2;" parent="1" vertex="1">
          <mxGeometry x="-8831.45" y="5220" width="375" height="75" as="geometry" />
        </mxCell>
        <mxCell id="Kiu_sgeR9yTWTMrZRUj6-30" value="Assign Task" style="ellipse;whiteSpace=wrap;html=1;fontSize=20;fontStyle=1;strokeWidth=2;" parent="1" vertex="1">
          <mxGeometry x="-8819.45" y="5430" width="375" height="75" as="geometry" />
        </mxCell>
        <mxCell id="Kiu_sgeR9yTWTMrZRUj6-37" value="Generate Salary Report" style="ellipse;whiteSpace=wrap;html=1;fontSize=20;fontStyle=1;strokeWidth=2;" parent="1" vertex="1">
          <mxGeometry x="-8831.45" y="5660" width="375" height="75" as="geometry" />
        </mxCell>
        <mxCell id="Kiu_sgeR9yTWTMrZRUj6-40" value="Request Loan" style="ellipse;whiteSpace=wrap;html=1;fontSize=20;fontStyle=1;strokeWidth=2;" parent="1" vertex="1">
          <mxGeometry x="-8841.06" y="1300" width="375" height="70" as="geometry" />
        </mxCell>
        <mxCell id="Kiu_sgeR9yTWTMrZRUj6-42" value="Managing Director" style="shape=umlActor;verticalLabelPosition=bottom;verticalAlign=top;html=1;fontSize=20;fontStyle=1;strokeWidth=2;" parent="1" vertex="1">
          <mxGeometry x="-9800" y="8750" width="40" height="80" as="geometry" />
        </mxCell>
        <mxCell id="Kiu_sgeR9yTWTMrZRUj6-44" value="Arrange Meeting" style="ellipse;whiteSpace=wrap;html=1;fontSize=20;fontStyle=1;strokeWidth=2;" parent="1" vertex="1">
          <mxGeometry x="-8110" y="8650" width="357" height="75" as="geometry" />
        </mxCell>
        <mxCell id="Kiu_sgeR9yTWTMrZRUj6-46" value="Check Employee Performance" style="ellipse;whiteSpace=wrap;html=1;fontSize=20;fontStyle=1;strokeWidth=2;" parent="1" vertex="1">
          <mxGeometry x="-8111.75" y="8745" width="357" height="75" as="geometry" />
        </mxCell>
        <mxCell id="Kiu_sgeR9yTWTMrZRUj6-48" value="Accountant" style="shape=umlActor;verticalLabelPosition=bottom;verticalAlign=top;html=1;fontSize=20;fontStyle=1;strokeWidth=2;" parent="1" vertex="1">
          <mxGeometry x="-9490" y="2675" width="39" height="70" as="geometry" />
        </mxCell>
        <mxCell id="Kiu_sgeR9yTWTMrZRUj6-49" value="Create Salaries" style="ellipse;whiteSpace=wrap;html=1;fontSize=20;fontStyle=1;strokeWidth=2;" parent="1" vertex="1">
          <mxGeometry x="-8790.369999999999" y="2560" width="357" height="75" as="geometry" />
        </mxCell>
        <mxCell id="Kiu_sgeR9yTWTMrZRUj6-50" value="Generate OT" style="ellipse;whiteSpace=wrap;html=1;fontSize=20;fontStyle=1;strokeWidth=2;" parent="1" vertex="1">
          <mxGeometry x="-8792.34" y="2660" width="357" height="75" as="geometry" />
        </mxCell>
        <mxCell id="Kiu_sgeR9yTWTMrZRUj6-65" value="Check Loan eligibility." style="ellipse;whiteSpace=wrap;html=1;fontSize=20;fontStyle=1;strokeWidth=2;" parent="1" vertex="1">
          <mxGeometry x="-8769.7" y="2250" width="357" height="75" as="geometry" />
        </mxCell>
        <mxCell id="Kiu_sgeR9yTWTMrZRUj6-66" value="Approve Loan" style="ellipse;whiteSpace=wrap;html=1;fontSize=20;fontStyle=1;strokeWidth=2;" parent="1" vertex="1">
          <mxGeometry x="-8817.45" y="4910" width="375" height="70" as="geometry" />
        </mxCell>
        <mxCell id="Kiu_sgeR9yTWTMrZRUj6-95" value="&lt;font style=&quot;font-size: 20px;&quot;&gt;Proposed Use case for Employee Management System&lt;/font&gt;" style="text;html=1;align=center;verticalAlign=middle;resizable=0;points=[];autosize=1;strokeColor=none;fillColor=none;fontSize=20;fontStyle=1;strokeWidth=2;" parent="1" vertex="1">
          <mxGeometry x="-8412.7" y="110" width="520" height="40" as="geometry" />
        </mxCell>
        <mxCell id="1_gvQA9Mw1F-bFMWtdlo-2" value="&lt;font style=&quot;font-size: 20px;&quot;&gt;Generate attendance Report&lt;/font&gt;" style="ellipse;whiteSpace=wrap;html=1;fontSize=20;fontStyle=1;strokeWidth=2;" parent="1" vertex="1">
          <mxGeometry x="-8810.09" y="6500" width="375" height="80" as="geometry" />
        </mxCell>
        <mxCell id="1_gvQA9Mw1F-bFMWtdlo-3" value="&lt;font style=&quot;font-size: 20px;&quot;&gt;Generate OT Report&lt;/font&gt;" style="ellipse;whiteSpace=wrap;html=1;fontSize=20;fontStyle=1;strokeWidth=2;" parent="1" vertex="1">
          <mxGeometry x="-8824.09" y="6050" width="375" height="80" as="geometry" />
        </mxCell>
        <mxCell id="1_gvQA9Mw1F-bFMWtdlo-4" value="&lt;font style=&quot;font-size: 20px;&quot;&gt;Generate Increment Report&lt;/font&gt;" style="ellipse;whiteSpace=wrap;html=1;fontSize=20;fontStyle=1;strokeWidth=2;" parent="1" vertex="1">
          <mxGeometry x="-8827.59" y="5860" width="375" height="80" as="geometry" />
        </mxCell>
        <mxCell id="1_gvQA9Mw1F-bFMWtdlo-15" value="Add OT" style="ellipse;whiteSpace=wrap;html=1;fontSize=20;fontStyle=1;strokeWidth=2;" parent="1" vertex="1">
          <mxGeometry x="-8474.309999999998" y="4030" width="149" height="80" as="geometry" />
        </mxCell>
        <mxCell id="1_gvQA9Mw1F-bFMWtdlo-16" value="Add Bonus" style="ellipse;whiteSpace=wrap;html=1;fontSize=20;fontStyle=1;strokeWidth=2;" parent="1" vertex="1">
          <mxGeometry x="-8638.9" y="4040" width="152.79" height="80" as="geometry" />
        </mxCell>
        <mxCell id="1_gvQA9Mw1F-bFMWtdlo-17" value="Add Increment" style="ellipse;whiteSpace=wrap;html=1;fontSize=20;fontStyle=1;strokeWidth=2;" parent="1" vertex="1">
          <mxGeometry x="-8829.91" y="4010" width="177.79" height="80" as="geometry" />
        </mxCell>
        <mxCell id="1_gvQA9Mw1F-bFMWtdlo-21" value="&lt;font style=&quot;font-size: 20px;&quot;&gt;Generate Training Report&lt;/font&gt;" style="ellipse;whiteSpace=wrap;html=1;fontSize=20;fontStyle=1;strokeWidth=2;" parent="1" vertex="1">
          <mxGeometry x="-8813.09" y="6680" width="375" height="70" as="geometry" />
        </mxCell>
        <mxCell id="1_gvQA9Mw1F-bFMWtdlo-22" value="&lt;font style=&quot;font-size: 20px;&quot;&gt;Generate Leave Report&lt;/font&gt;" style="ellipse;whiteSpace=wrap;html=1;fontSize=20;fontStyle=1;strokeWidth=2;" parent="1" vertex="1">
          <mxGeometry x="-8804.84" y="6920" width="375" height="70" as="geometry" />
        </mxCell>
        <mxCell id="1_gvQA9Mw1F-bFMWtdlo-23" value="ApplyFull Day Leave&amp;nbsp;" style="ellipse;whiteSpace=wrap;html=1;fontSize=20;fontStyle=1;strokeWidth=2;" parent="1" vertex="1">
          <mxGeometry x="-8119.120000000001" y="410" width="173" height="70" as="geometry" />
        </mxCell>
        <mxCell id="1_gvQA9Mw1F-bFMWtdlo-24" value="Apply Half day Leave" style="ellipse;whiteSpace=wrap;html=1;fontSize=20;fontStyle=1;strokeWidth=2;" parent="1" vertex="1">
          <mxGeometry x="-8117.370000000001" y="510" width="173" height="70" as="geometry" />
        </mxCell>
        <mxCell id="1_gvQA9Mw1F-bFMWtdlo-25" value="Apply Short Leave" style="ellipse;whiteSpace=wrap;html=1;fontSize=20;fontStyle=1;strokeWidth=2;" parent="1" vertex="1">
          <mxGeometry x="-8110" y="590" width="140" height="70" as="geometry" />
        </mxCell>
        <mxCell id="1_gvQA9Mw1F-bFMWtdlo-27" value="" style="endArrow=none;endSize=6;dashed=1;html=1;rounded=0;entryX=0;entryY=0.5;entryDx=0;entryDy=0;exitX=0.967;exitY=0.313;exitDx=0;exitDy=0;exitPerimeter=0;fontSize=20;endFill=0;startArrow=open;startFill=0;startSize=12;fontStyle=1;strokeWidth=2;" parent="1" source="F71kkK3N29jPOHGHF4Ug-40" target="1_gvQA9Mw1F-bFMWtdlo-23" edge="1">
          <mxGeometry width="160" relative="1" as="geometry">
            <mxPoint x="-8476.869999999999" y="683.2400000000002" as="sourcePoint" />
            <mxPoint x="-8395.06" y="593.6099999999997" as="targetPoint" />
          </mxGeometry>
        </mxCell>
        <mxCell id="1_gvQA9Mw1F-bFMWtdlo-29" value="" style="endArrow=none;endSize=6;dashed=1;html=1;rounded=0;entryX=0.005;entryY=0.36;entryDx=0;entryDy=0;entryPerimeter=0;fontSize=20;endFill=0;startArrow=open;startFill=0;startSize=12;exitX=1;exitY=0.5;exitDx=0;exitDy=0;fontStyle=1;strokeWidth=2;" parent="1" source="F71kkK3N29jPOHGHF4Ug-40" target="1_gvQA9Mw1F-bFMWtdlo-25" edge="1">
          <mxGeometry width="160" relative="1" as="geometry">
            <mxPoint x="-8482.99" y="710" as="sourcePoint" />
            <mxPoint x="-8424.08" y="790" as="targetPoint" />
          </mxGeometry>
        </mxCell>
        <mxCell id="1_gvQA9Mw1F-bFMWtdlo-30" value="&lt;font style=&quot;font-size: 20px;&quot;&gt;Generate staff Loan request report&lt;/font&gt;" style="ellipse;whiteSpace=wrap;html=1;fontSize=20;fontStyle=1;strokeWidth=2;" parent="1" vertex="1">
          <mxGeometry x="-8806.8" y="7110" width="375" height="70" as="geometry" />
        </mxCell>
        <mxCell id="1_gvQA9Mw1F-bFMWtdlo-31" value="&lt;font style=&quot;font-size: 20px;&quot;&gt;Generate home loan request Report&lt;/font&gt;" style="ellipse;whiteSpace=wrap;html=1;fontSize=20;fontStyle=1;strokeWidth=2;" parent="1" vertex="1">
          <mxGeometry x="-8794.3" y="7380" width="375" height="70" as="geometry" />
        </mxCell>
        <mxCell id="1_gvQA9Mw1F-bFMWtdlo-32" value="&lt;font style=&quot;font-size: 20px;&quot;&gt;Generate Vehicle Loan Request Report&lt;/font&gt;" style="ellipse;whiteSpace=wrap;html=1;fontSize=20;fontStyle=1;strokeWidth=2;" parent="1" vertex="1">
          <mxGeometry x="-8792.3" y="7560" width="375" height="70" as="geometry" />
        </mxCell>
        <mxCell id="1_gvQA9Mw1F-bFMWtdlo-33" value="&lt;font style=&quot;font-size: 20px;&quot;&gt;Generate Educational Loan request Report&lt;/font&gt;" style="ellipse;whiteSpace=wrap;html=1;fontSize=20;fontStyle=1;strokeWidth=2;" parent="1" vertex="1">
          <mxGeometry x="-8786.3" y="7760" width="375" height="70" as="geometry" />
        </mxCell>
        <mxCell id="1_gvQA9Mw1F-bFMWtdlo-34" value="&lt;font style=&quot;font-size: 20px;&quot;&gt;Generate Emergency Loan request report&lt;/font&gt;" style="ellipse;whiteSpace=wrap;html=1;fontSize=20;fontStyle=1;strokeWidth=2;" parent="1" vertex="1">
          <mxGeometry x="-8782.3" y="7990" width="375" height="75" as="geometry" />
        </mxCell>
        <mxCell id="1_gvQA9Mw1F-bFMWtdlo-35" value="&lt;font style=&quot;font-size: 20px;&quot;&gt;Generate product loan request report&lt;/font&gt;" style="ellipse;whiteSpace=wrap;html=1;fontSize=20;fontStyle=1;strokeWidth=2;" parent="1" vertex="1">
          <mxGeometry x="-8777.3" y="8170" width="375" height="75" as="geometry" />
        </mxCell>
        <mxCell id="1_gvQA9Mw1F-bFMWtdlo-46" value="Generate bonus&amp;nbsp;" style="ellipse;whiteSpace=wrap;html=1;fontSize=20;fontStyle=1;strokeWidth=2;" parent="1" vertex="1">
          <mxGeometry x="-8790.369999999999" y="2770" width="357" height="75" as="geometry" />
        </mxCell>
        <mxCell id="1_gvQA9Mw1F-bFMWtdlo-47" value="Generate increment" style="ellipse;whiteSpace=wrap;html=1;fontSize=20;fontStyle=1;strokeWidth=2;" parent="1" vertex="1">
          <mxGeometry x="-8792.34" y="2890" width="357" height="75" as="geometry" />
        </mxCell>
        <mxCell id="1_gvQA9Mw1F-bFMWtdlo-49" value="&amp;lt;&amp;lt;extend&amp;gt;&amp;gt;" style="text;html=1;align=center;verticalAlign=middle;resizable=0;points=[];autosize=1;strokeColor=none;fillColor=none;fontSize=20;fontStyle=1;strokeWidth=2;" parent="1" vertex="1">
          <mxGeometry x="-8287.11" y="605" width="130" height="40" as="geometry" />
        </mxCell>
        <mxCell id="1_gvQA9Mw1F-bFMWtdlo-51" value="&amp;lt;&amp;lt;extend&amp;gt;&amp;gt;" style="text;html=1;align=center;verticalAlign=middle;resizable=0;points=[];autosize=1;strokeColor=none;fillColor=none;fontSize=20;fontStyle=1;strokeWidth=2;" parent="1" vertex="1">
          <mxGeometry x="-8340.23" y="510" width="130" height="40" as="geometry" />
        </mxCell>
        <mxCell id="1_gvQA9Mw1F-bFMWtdlo-72" value="" style="endArrow=none;endFill=0;endSize=12;html=1;rounded=0;entryX=0;entryY=0.5;entryDx=0;entryDy=0;fontSize=20;fontStyle=1;strokeWidth=2;" parent="1" target="F71kkK3N29jPOHGHF4Ug-40" edge="1">
          <mxGeometry width="160" relative="1" as="geometry">
            <mxPoint x="-9415.29" y="690" as="sourcePoint" />
            <mxPoint x="-8405.29" y="690" as="targetPoint" />
          </mxGeometry>
        </mxCell>
        <mxCell id="1_gvQA9Mw1F-bFMWtdlo-73" value="" style="endArrow=none;endFill=0;endSize=12;html=1;rounded=0;entryX=0;entryY=0.5;entryDx=0;entryDy=0;fontSize=20;fontStyle=1;strokeWidth=2;" parent="1" target="F71kkK3N29jPOHGHF4Ug-41" edge="1">
          <mxGeometry width="160" relative="1" as="geometry">
            <mxPoint x="-9415.29" y="690" as="sourcePoint" />
            <mxPoint x="-8845.29" y="385" as="targetPoint" />
          </mxGeometry>
        </mxCell>
        <mxCell id="1_gvQA9Mw1F-bFMWtdlo-74" value="" style="endArrow=none;endFill=0;endSize=12;html=1;rounded=0;entryX=0;entryY=0.5;entryDx=0;entryDy=0;fontSize=20;fontStyle=1;strokeWidth=2;" parent="1" target="Kiu_sgeR9yTWTMrZRUj6-40" edge="1">
          <mxGeometry width="160" relative="1" as="geometry">
            <mxPoint x="-9415.29" y="690" as="sourcePoint" />
            <mxPoint x="-8835.29" y="395" as="targetPoint" />
          </mxGeometry>
        </mxCell>
        <mxCell id="1_gvQA9Mw1F-bFMWtdlo-113" value="" style="endArrow=none;endFill=0;endSize=12;html=1;rounded=0;entryX=0;entryY=0.5;entryDx=0;entryDy=0;fontSize=20;fontStyle=1;strokeWidth=2;" parent="1" target="Kiu_sgeR9yTWTMrZRUj6-49" edge="1">
          <mxGeometry width="160" relative="1" as="geometry">
            <mxPoint x="-9438.68" y="2720" as="sourcePoint" />
            <mxPoint x="-9278.68" y="2720" as="targetPoint" />
          </mxGeometry>
        </mxCell>
        <mxCell id="1_gvQA9Mw1F-bFMWtdlo-114" value="" style="endArrow=none;endFill=0;endSize=12;html=1;rounded=0;entryX=0;entryY=0.5;entryDx=0;entryDy=0;fontSize=20;fontStyle=1;strokeWidth=2;" parent="1" target="Kiu_sgeR9yTWTMrZRUj6-50" edge="1">
          <mxGeometry width="160" relative="1" as="geometry">
            <mxPoint x="-9438.68" y="2720" as="sourcePoint" />
            <mxPoint x="-9268.68" y="2720" as="targetPoint" />
          </mxGeometry>
        </mxCell>
        <mxCell id="1_gvQA9Mw1F-bFMWtdlo-115" value="" style="endArrow=none;endFill=0;endSize=12;html=1;rounded=0;entryX=0;entryY=0.5;entryDx=0;entryDy=0;fontSize=20;fontStyle=1;strokeWidth=2;" parent="1" target="1_gvQA9Mw1F-bFMWtdlo-46" edge="1">
          <mxGeometry width="160" relative="1" as="geometry">
            <mxPoint x="-9438.68" y="2720" as="sourcePoint" />
            <mxPoint x="-9268.68" y="2720" as="targetPoint" />
          </mxGeometry>
        </mxCell>
        <mxCell id="1_gvQA9Mw1F-bFMWtdlo-116" value="" style="endArrow=none;endFill=0;endSize=12;html=1;rounded=0;entryX=0;entryY=0.5;entryDx=0;entryDy=0;fontSize=20;fontStyle=1;strokeWidth=2;" parent="1" target="1_gvQA9Mw1F-bFMWtdlo-47" edge="1">
          <mxGeometry width="160" relative="1" as="geometry">
            <mxPoint x="-9438.68" y="2720" as="sourcePoint" />
            <mxPoint x="-9268.68" y="2720" as="targetPoint" />
          </mxGeometry>
        </mxCell>
        <mxCell id="1_gvQA9Mw1F-bFMWtdlo-117" value="" style="endArrow=none;startArrow=circlePlus;endFill=0;startFill=0;endSize=8;html=1;rounded=0;entryX=0;entryY=0.5;entryDx=0;entryDy=0;fontSize=20;fontStyle=1;strokeWidth=2;" parent="1" target="Kiu_sgeR9yTWTMrZRUj6-65" edge="1">
          <mxGeometry width="160" relative="1" as="geometry">
            <mxPoint x="-9438.68" y="2720" as="sourcePoint" />
            <mxPoint x="-9268.68" y="2720" as="targetPoint" />
            <Array as="points">
              <mxPoint x="-9438.68" y="2720" />
            </Array>
          </mxGeometry>
        </mxCell>
        <mxCell id="1_gvQA9Mw1F-bFMWtdlo-147" value="" style="endArrow=none;endFill=0;endSize=12;html=1;rounded=0;entryX=0;entryY=0.5;entryDx=0;entryDy=0;fontSize=20;fontStyle=1;strokeWidth=2;" parent="1" target="Kiu_sgeR9yTWTMrZRUj6-10" edge="1">
          <mxGeometry width="160" relative="1" as="geometry">
            <mxPoint x="-9415.29" y="690" as="sourcePoint" />
            <mxPoint x="-9235.29" y="690" as="targetPoint" />
          </mxGeometry>
        </mxCell>
        <mxCell id="1_gvQA9Mw1F-bFMWtdlo-148" value="" style="endArrow=none;endFill=0;endSize=12;html=1;rounded=0;entryX=0;entryY=0.5;entryDx=0;entryDy=0;fontSize=20;fontStyle=1;strokeWidth=2;" parent="1" target="F71kkK3N29jPOHGHF4Ug-43" edge="1">
          <mxGeometry width="160" relative="1" as="geometry">
            <mxPoint x="-9415.29" y="690" as="sourcePoint" />
            <mxPoint x="-9255.29" y="690" as="targetPoint" />
          </mxGeometry>
        </mxCell>
        <mxCell id="l3vJUugmlYN3g6FOaKyB-1" value="" style="endArrow=none;dashed=1;endFill=0;endSize=6;html=1;rounded=0;entryX=0;entryY=0.5;entryDx=0;entryDy=0;fontSize=20;exitX=0.989;exitY=0.383;exitDx=0;exitDy=0;startSize=12;startArrow=open;startFill=0;exitPerimeter=0;fontStyle=1;strokeWidth=2;" parent="1" source="F71kkK3N29jPOHGHF4Ug-40" target="1_gvQA9Mw1F-bFMWtdlo-24" edge="1">
          <mxGeometry width="160" relative="1" as="geometry">
            <mxPoint x="-8468.830000000002" y="695" as="sourcePoint" />
            <mxPoint x="-8304.08" y="690" as="targetPoint" />
          </mxGeometry>
        </mxCell>
        <mxCell id="l3vJUugmlYN3g6FOaKyB-2" value="&amp;lt;&amp;lt;extend&amp;gt;&amp;gt;" style="text;html=1;align=center;verticalAlign=middle;resizable=0;points=[];autosize=1;strokeColor=none;fillColor=none;fontSize=20;fontStyle=1;strokeWidth=2;" parent="1" vertex="1">
          <mxGeometry x="-8287.11" y="550" width="130" height="40" as="geometry" />
        </mxCell>
        <mxCell id="l3vJUugmlYN3g6FOaKyB-3" value="Add NoPay" style="ellipse;whiteSpace=wrap;html=1;fontSize=20;fontStyle=1;strokeWidth=2;" parent="1" vertex="1">
          <mxGeometry x="-8958.130000000001" y="3930" width="165.79" height="70" as="geometry" />
        </mxCell>
        <mxCell id="l3vJUugmlYN3g6FOaKyB-6" value="&lt;font style=&quot;font-size: 20px;&quot;&gt;Generate No Pay Report&lt;/font&gt;" style="ellipse;whiteSpace=wrap;html=1;fontSize=20;fontStyle=1;strokeWidth=2;" parent="1" vertex="1">
          <mxGeometry x="-8813.09" y="6300" width="375" height="70" as="geometry" />
        </mxCell>
        <mxCell id="l3vJUugmlYN3g6FOaKyB-12" value="&lt;font style=&quot;font-size: 20px;&quot;&gt;Generate Monthly Increment Report&lt;/font&gt;" style="ellipse;whiteSpace=wrap;html=1;fontSize=20;fontStyle=1;strokeWidth=2;" parent="1" vertex="1">
          <mxGeometry x="-8110" y="5840" width="400" height="75" as="geometry" />
        </mxCell>
        <mxCell id="l3vJUugmlYN3g6FOaKyB-13" value="&lt;font style=&quot;font-size: 20px;&quot;&gt;Generate Annual Increment Report&lt;/font&gt;" style="ellipse;whiteSpace=wrap;html=1;fontSize=20;fontStyle=1;strokeWidth=2;" parent="1" vertex="1">
          <mxGeometry x="-8100" y="5950" width="400" height="75" as="geometry" />
        </mxCell>
        <mxCell id="l3vJUugmlYN3g6FOaKyB-14" value="&lt;font style=&quot;font-size: 20px;&quot;&gt;Generate Monthly OT Report&lt;/font&gt;" style="ellipse;whiteSpace=wrap;html=1;fontSize=20;fontStyle=1;strokeWidth=2;" parent="1" vertex="1">
          <mxGeometry x="-8111.75" y="6070" width="400" height="75" as="geometry" />
        </mxCell>
        <mxCell id="l3vJUugmlYN3g6FOaKyB-15" value="&lt;font style=&quot;font-size: 20px;&quot;&gt;Generate Annual OT Report&lt;/font&gt;" style="ellipse;whiteSpace=wrap;html=1;fontSize=20;fontStyle=1;strokeWidth=2;" parent="1" vertex="1">
          <mxGeometry x="-8115.299999999999" y="6160" width="400" height="75" as="geometry" />
        </mxCell>
        <mxCell id="l3vJUugmlYN3g6FOaKyB-16" value="&lt;font style=&quot;font-size: 20px;&quot;&gt;Generate Monthly No Pay Report&lt;/font&gt;" style="ellipse;whiteSpace=wrap;html=1;fontSize=20;fontStyle=1;strokeWidth=2;" parent="1" vertex="1">
          <mxGeometry x="-8104.130000000001" y="6270" width="400" height="75" as="geometry" />
        </mxCell>
        <mxCell id="l3vJUugmlYN3g6FOaKyB-17" value="&lt;font style=&quot;font-size: 20px;&quot;&gt;Generate Annual No Pay Report&lt;/font&gt;" style="ellipse;whiteSpace=wrap;html=1;fontSize=20;fontStyle=1;strokeWidth=2;" parent="1" vertex="1">
          <mxGeometry x="-8080" y="6395" width="400" height="75" as="geometry" />
        </mxCell>
        <mxCell id="l3vJUugmlYN3g6FOaKyB-19" value="Generate Annual Attendance Report" style="ellipse;whiteSpace=wrap;html=1;fontSize=20;fontStyle=1;strokeWidth=2;" parent="1" vertex="1">
          <mxGeometry x="-8110" y="6590" width="400" height="75" as="geometry" />
        </mxCell>
        <mxCell id="l3vJUugmlYN3g6FOaKyB-20" value="&lt;font style=&quot;font-size: 20px;&quot;&gt;Generate Monthly Training Report&lt;/font&gt;" style="ellipse;whiteSpace=wrap;html=1;fontSize=20;fontStyle=1;strokeWidth=2;" parent="1" vertex="1">
          <mxGeometry x="-8111.75" y="6687.5" width="400" height="75" as="geometry" />
        </mxCell>
        <mxCell id="l3vJUugmlYN3g6FOaKyB-21" value="&lt;font style=&quot;font-size: 20px;&quot;&gt;Generate Annual Training Report&lt;/font&gt;" style="ellipse;whiteSpace=wrap;html=1;fontSize=20;fontStyle=1;strokeWidth=2;" parent="1" vertex="1">
          <mxGeometry x="-8113.5" y="6790" width="400" height="75" as="geometry" />
        </mxCell>
        <mxCell id="l3vJUugmlYN3g6FOaKyB-22" value="&lt;font style=&quot;font-size: 20px;&quot;&gt;Generate Monthly Leave Report&lt;/font&gt;" style="ellipse;whiteSpace=wrap;html=1;fontSize=20;fontStyle=1;strokeWidth=2;" parent="1" vertex="1">
          <mxGeometry x="-8115.299999999999" y="6900" width="400" height="75" as="geometry" />
        </mxCell>
        <mxCell id="l3vJUugmlYN3g6FOaKyB-23" value="&lt;font style=&quot;font-size: 20px;&quot;&gt;Generate Annual Leave Report&lt;/font&gt;" style="ellipse;whiteSpace=wrap;html=1;fontSize=20;fontStyle=1;strokeWidth=2;" parent="1" vertex="1">
          <mxGeometry x="-8110" y="7000" width="400" height="75" as="geometry" />
        </mxCell>
        <mxCell id="l3vJUugmlYN3g6FOaKyB-24" value="&lt;font style=&quot;font-size: 20px;&quot;&gt;Generate Monthly Staff Loan request report&lt;/font&gt;" style="ellipse;whiteSpace=wrap;html=1;fontSize=20;fontStyle=1;strokeWidth=2;" parent="1" vertex="1">
          <mxGeometry x="-8095.339999999998" y="7125" width="400" height="75" as="geometry" />
        </mxCell>
        <mxCell id="l3vJUugmlYN3g6FOaKyB-25" value="&lt;font style=&quot;font-size: 20px;&quot;&gt;Generate Annual Staff Loan request report&lt;/font&gt;" style="ellipse;whiteSpace=wrap;html=1;fontSize=20;fontStyle=1;strokeWidth=2;" parent="1" vertex="1">
          <mxGeometry x="-8110" y="7230" width="400" height="75" as="geometry" />
        </mxCell>
        <mxCell id="l3vJUugmlYN3g6FOaKyB-26" value="&lt;font style=&quot;font-size: 20px;&quot;&gt;Generate Monthly home Loan request report&lt;/font&gt;" style="ellipse;whiteSpace=wrap;html=1;fontSize=20;fontStyle=1;strokeWidth=2;" parent="1" vertex="1">
          <mxGeometry x="-8126.98" y="7347.5" width="422.85" height="60" as="geometry" />
        </mxCell>
        <mxCell id="l3vJUugmlYN3g6FOaKyB-27" value="&lt;font style=&quot;font-size: 20px;&quot;&gt;Generate Annual home Loan request report&lt;/font&gt;" style="ellipse;whiteSpace=wrap;html=1;fontSize=20;fontStyle=1;strokeWidth=2;" parent="1" vertex="1">
          <mxGeometry x="-8121.42" y="7425" width="422.85" height="85" as="geometry" />
        </mxCell>
        <mxCell id="l3vJUugmlYN3g6FOaKyB-28" value="&lt;font style=&quot;font-size: 20px;&quot;&gt;Generate Monthly Vehicle Loan request report&lt;/font&gt;" style="ellipse;whiteSpace=wrap;html=1;fontSize=20;fontStyle=1;strokeWidth=2;" parent="1" vertex="1">
          <mxGeometry x="-8115.549999999999" y="7532.5" width="400" height="75" as="geometry" />
        </mxCell>
        <mxCell id="l3vJUugmlYN3g6FOaKyB-29" value="&lt;font style=&quot;font-size: 20px;&quot;&gt;Generate Annual Vehicle Loan request report&lt;/font&gt;" style="ellipse;whiteSpace=wrap;html=1;fontSize=20;fontStyle=1;strokeWidth=2;" parent="1" vertex="1">
          <mxGeometry x="-8115.549999999999" y="7640" width="400" height="75" as="geometry" />
        </mxCell>
        <mxCell id="l3vJUugmlYN3g6FOaKyB-30" value="&lt;font style=&quot;font-size: 20px;&quot;&gt;Generate Monthly Educational Loan request report&lt;/font&gt;" style="ellipse;whiteSpace=wrap;html=1;fontSize=20;fontStyle=1;strokeWidth=2;" parent="1" vertex="1">
          <mxGeometry x="-8126.98" y="7735" width="526.09" height="75" as="geometry" />
        </mxCell>
        <mxCell id="l3vJUugmlYN3g6FOaKyB-31" value="&lt;font style=&quot;font-size: 20px;&quot;&gt;Generate Annual Educational Loan request report&lt;/font&gt;" style="ellipse;whiteSpace=wrap;html=1;fontSize=20;fontStyle=1;strokeWidth=2;" parent="1" vertex="1">
          <mxGeometry x="-8111.75" y="7830" width="466.09" height="75" as="geometry" />
        </mxCell>
        <mxCell id="l3vJUugmlYN3g6FOaKyB-32" value="&lt;font style=&quot;font-size: 20px;&quot;&gt;Generate Monthly Emergency Loan request report&lt;/font&gt;" style="ellipse;whiteSpace=wrap;html=1;fontSize=20;fontStyle=1;strokeWidth=2;" parent="1" vertex="1">
          <mxGeometry x="-8102" y="7940" width="446.6" height="90" as="geometry" />
        </mxCell>
        <mxCell id="l3vJUugmlYN3g6FOaKyB-33" value="&lt;font style=&quot;font-size: 20px;&quot;&gt;Generate Annual Emergency Loan request report&lt;/font&gt;" style="ellipse;whiteSpace=wrap;html=1;fontSize=20;fontStyle=1;strokeWidth=2;" parent="1" vertex="1">
          <mxGeometry x="-8111.75" y="8040" width="456.6" height="105" as="geometry" />
        </mxCell>
        <mxCell id="l3vJUugmlYN3g6FOaKyB-34" value="&lt;font style=&quot;font-size: 20px;&quot;&gt;Generate Monthly Product Loan request report&lt;/font&gt;" style="ellipse;whiteSpace=wrap;html=1;fontSize=20;fontStyle=1;strokeWidth=2;" parent="1" vertex="1">
          <mxGeometry x="-8104.130000000001" y="8165" width="436.45" height="85" as="geometry" />
        </mxCell>
        <mxCell id="l3vJUugmlYN3g6FOaKyB-35" value="&lt;font style=&quot;font-size: 20px;&quot;&gt;Generate Annual Product Loan request report&lt;/font&gt;" style="ellipse;whiteSpace=wrap;html=1;fontSize=20;fontStyle=1;strokeWidth=2;" parent="1" vertex="1">
          <mxGeometry x="-8095.330000000002" y="8260" width="400" height="90" as="geometry" />
        </mxCell>
        <mxCell id="l3vJUugmlYN3g6FOaKyB-41" value="&lt;font style=&quot;font-size: 20px;&quot;&gt;Generate Annual Salary Report&lt;/font&gt;" style="ellipse;whiteSpace=wrap;html=1;fontSize=20;fontStyle=1;strokeWidth=2;" parent="1" vertex="1">
          <mxGeometry x="-8110" y="5735" width="400" height="75" as="geometry" />
        </mxCell>
        <mxCell id="l3vJUugmlYN3g6FOaKyB-42" value="&lt;font style=&quot;font-size: 20px;&quot;&gt;Generate Monthly Salary Report&lt;/font&gt;" style="ellipse;whiteSpace=wrap;html=1;fontSize=20;fontStyle=1;strokeWidth=2;" parent="1" vertex="1">
          <mxGeometry x="-8104.119999999999" y="5630" width="400" height="75" as="geometry" />
        </mxCell>
        <mxCell id="l3vJUugmlYN3g6FOaKyB-43" value="&lt;font style=&quot;font-size: 20px;&quot;&gt;Check Available Leave Balance&lt;/font&gt;" style="ellipse;whiteSpace=wrap;html=1;fontSize=20;fontStyle=1;strokeWidth=2;" parent="1" vertex="1">
          <mxGeometry x="-8336.64" y="5190" width="386.64" height="75" as="geometry" />
        </mxCell>
        <mxCell id="2l9gxJVeN8rWtBlAJ6Zl-11" value="&lt;font style=&quot;font-size: 20px;&quot;&gt;Check Loan Request&lt;/font&gt;" style="ellipse;whiteSpace=wrap;html=1;fontSize=20;fontStyle=1;strokeWidth=2;" parent="1" vertex="1">
          <mxGeometry x="-8824.71" y="4710" width="375" height="80" as="geometry" />
        </mxCell>
        <mxCell id="qywmRbYdawK2gE5V6afP-1" value="&lt;font style=&quot;font-size: 20px;&quot;&gt;View Profile&lt;/font&gt;" style="ellipse;whiteSpace=wrap;html=1;fontSize=20;fontStyle=1;strokeWidth=2;" parent="1" vertex="1">
          <mxGeometry x="-8848.109999999999" y="1560" width="375" height="80" as="geometry" />
        </mxCell>
        <mxCell id="qywmRbYdawK2gE5V6afP-2" value="" style="endArrow=none;html=1;rounded=0;entryX=0;entryY=0.5;entryDx=0;entryDy=0;fontSize=20;fontStyle=1;strokeWidth=2;" parent="1" target="qywmRbYdawK2gE5V6afP-1" edge="1">
          <mxGeometry width="50" height="50" relative="1" as="geometry">
            <mxPoint x="-9416.29" y="690" as="sourcePoint" />
            <mxPoint x="-8906.29" y="1288.727361505682" as="targetPoint" />
          </mxGeometry>
        </mxCell>
        <mxCell id="qywmRbYdawK2gE5V6afP-3" value="Approve Staff Loan" style="ellipse;whiteSpace=wrap;html=1;fontSize=20;fontStyle=1;strokeWidth=2;" parent="1" vertex="1">
          <mxGeometry x="-8392.300000000001" y="4550" width="277" height="70" as="geometry" />
        </mxCell>
        <mxCell id="qywmRbYdawK2gE5V6afP-5" value="&lt;font style=&quot;font-size: 20px;&quot;&gt;Approve Home Loan&lt;/font&gt;" style="ellipse;whiteSpace=wrap;html=1;fontSize=20;fontStyle=1;strokeWidth=2;" parent="1" vertex="1">
          <mxGeometry x="-8266.76" y="4640" width="281" height="70" as="geometry" />
        </mxCell>
        <mxCell id="qywmRbYdawK2gE5V6afP-6" value="&lt;font style=&quot;font-size: 20px;&quot;&gt;Approve Vehicle Loan&lt;/font&gt;" style="ellipse;whiteSpace=wrap;html=1;fontSize=20;fontStyle=1;strokeWidth=2;" parent="1" vertex="1">
          <mxGeometry x="-8258.75" y="4730" width="281" height="70" as="geometry" />
        </mxCell>
        <mxCell id="qywmRbYdawK2gE5V6afP-7" value="&lt;font style=&quot;font-size: 20px;&quot;&gt;Approve Educational Loan&lt;/font&gt;" style="ellipse;whiteSpace=wrap;html=1;fontSize=20;fontStyle=1;strokeWidth=2;" parent="1" vertex="1">
          <mxGeometry x="-8234.99" y="4820" width="281" height="70" as="geometry" />
        </mxCell>
        <mxCell id="qywmRbYdawK2gE5V6afP-8" value="&lt;font style=&quot;font-size: 20px;&quot;&gt;Approve Emergency Loan&lt;/font&gt;" style="ellipse;whiteSpace=wrap;html=1;fontSize=20;fontStyle=1;strokeWidth=2;" parent="1" vertex="1">
          <mxGeometry x="-8238.64" y="4920" width="281" height="70" as="geometry" />
        </mxCell>
        <mxCell id="qywmRbYdawK2gE5V6afP-9" value="&lt;font style=&quot;font-size: 20px;&quot;&gt;Approve Products Loan&lt;/font&gt;" style="ellipse;whiteSpace=wrap;html=1;fontSize=20;fontStyle=1;strokeWidth=2;" parent="1" vertex="1">
          <mxGeometry x="-8165.120000000001" y="5020" width="281" height="70" as="geometry" />
        </mxCell>
        <mxCell id="qywmRbYdawK2gE5V6afP-11" value="Request staff&amp;nbsp; Loan" style="ellipse;whiteSpace=wrap;html=1;fontSize=20;fontStyle=1;strokeWidth=2;" parent="1" vertex="1">
          <mxGeometry x="-8165.119999999999" y="1260" width="265" height="70" as="geometry" />
        </mxCell>
        <mxCell id="qywmRbYdawK2gE5V6afP-12" value="&lt;font style=&quot;font-size: 20px;&quot;&gt;Request Home Loan&lt;/font&gt;" style="ellipse;whiteSpace=wrap;html=1;fontSize=20;fontStyle=1;strokeWidth=2;" parent="1" vertex="1">
          <mxGeometry x="-8162.619999999999" y="1355" width="263.5" height="80" as="geometry" />
        </mxCell>
        <mxCell id="qywmRbYdawK2gE5V6afP-13" value="&lt;font style=&quot;font-size: 20px;&quot;&gt;Request Vehicle Loan&lt;/font&gt;" style="ellipse;whiteSpace=wrap;html=1;fontSize=20;fontStyle=1;strokeWidth=2;" parent="1" vertex="1">
          <mxGeometry x="-8165.119999999999" y="1455" width="278" height="80" as="geometry" />
        </mxCell>
        <mxCell id="qywmRbYdawK2gE5V6afP-14" value="&lt;font style=&quot;font-size: 20px;&quot;&gt;Request&amp;nbsp;Educational&lt;br style=&quot;font-size: 20px;&quot;&gt;&amp;nbsp;Loan&lt;/font&gt;" style="ellipse;whiteSpace=wrap;html=1;fontSize=20;fontStyle=1;strokeWidth=2;" parent="1" vertex="1">
          <mxGeometry x="-8165.119999999999" y="1550" width="278" height="80" as="geometry" />
        </mxCell>
        <mxCell id="qywmRbYdawK2gE5V6afP-15" value="&lt;font style=&quot;font-size: 20px;&quot;&gt;Request&amp;nbsp;Emergency&lt;br style=&quot;font-size: 20px;&quot;&gt;&amp;nbsp;Loan&lt;/font&gt;" style="ellipse;whiteSpace=wrap;html=1;fontSize=20;fontStyle=1;strokeWidth=2;" parent="1" vertex="1">
          <mxGeometry x="-8162.619999999999" y="1660" width="278" height="80" as="geometry" />
        </mxCell>
        <mxCell id="qywmRbYdawK2gE5V6afP-16" value="&lt;font style=&quot;font-size: 20px;&quot;&gt;Request Products&lt;br style=&quot;font-size: 20px;&quot;&gt;&amp;nbsp;Loan&lt;/font&gt;" style="ellipse;whiteSpace=wrap;html=1;fontSize=20;fontStyle=1;strokeWidth=2;" parent="1" vertex="1">
          <mxGeometry x="-8165.119999999999" y="1750" width="278" height="80" as="geometry" />
        </mxCell>
        <mxCell id="qywmRbYdawK2gE5V6afP-17" value="&lt;font style=&quot;font-size: 20px;&quot;&gt;Cancel Leave&lt;/font&gt;" style="ellipse;whiteSpace=wrap;html=1;fontSize=20;fontStyle=1;strokeWidth=2;" parent="1" vertex="1">
          <mxGeometry x="-8827.59" y="5330" width="375" height="75" as="geometry" />
        </mxCell>
        <mxCell id="qywmRbYdawK2gE5V6afP-18" value="&lt;font style=&quot;font-size: 20px;&quot;&gt;Logout&lt;/font&gt;" style="ellipse;whiteSpace=wrap;html=1;fontSize=20;fontStyle=1;strokeWidth=2;" parent="1" vertex="1">
          <mxGeometry x="-8813.090000000002" y="2120" width="375" height="80" as="geometry" />
        </mxCell>
        <mxCell id="qywmRbYdawK2gE5V6afP-19" value="&lt;font style=&quot;font-size: 20px;&quot;&gt;Login&lt;/font&gt;" style="ellipse;whiteSpace=wrap;html=1;fontSize=20;fontStyle=1;strokeWidth=2;" parent="1" vertex="1">
          <mxGeometry x="-8844.23" y="330" width="375" height="80" as="geometry" />
        </mxCell>
        <mxCell id="qywmRbYdawK2gE5V6afP-20" value="" style="endArrow=none;html=1;rounded=0;entryX=0;entryY=0.5;entryDx=0;entryDy=0;fontSize=20;fontStyle=1;strokeWidth=2;" parent="1" target="qywmRbYdawK2gE5V6afP-19" edge="1">
          <mxGeometry width="50" height="50" relative="1" as="geometry">
            <mxPoint x="-9416.29" y="690" as="sourcePoint" />
            <mxPoint x="-8496.29" y="520" as="targetPoint" />
          </mxGeometry>
        </mxCell>
        <mxCell id="qywmRbYdawK2gE5V6afP-28" value="" style="endArrow=none;html=1;rounded=0;entryX=0;entryY=0.5;entryDx=0;entryDy=0;fontSize=20;fontStyle=1;strokeWidth=2;" parent="1" target="qywmRbYdawK2gE5V6afP-18" edge="1">
          <mxGeometry width="50" height="50" relative="1" as="geometry">
            <mxPoint x="-9416.29" y="690" as="sourcePoint" />
            <mxPoint x="-9386.29" y="940" as="targetPoint" />
          </mxGeometry>
        </mxCell>
        <mxCell id="qywmRbYdawK2gE5V6afP-29" value="" style="endArrow=none;dashed=1;html=1;dashPattern=1 3;strokeWidth=2;rounded=0;entryX=0;entryY=0.5;entryDx=0;entryDy=0;fontSize=20;startArrow=open;startFill=0;startSize=12;fontStyle=1" parent="1" target="qywmRbYdawK2gE5V6afP-12" edge="1">
          <mxGeometry width="50" height="50" relative="1" as="geometry">
            <mxPoint x="-8470.189999999999" y="1330" as="sourcePoint" />
            <mxPoint x="-8417.92" y="1170" as="targetPoint" />
          </mxGeometry>
        </mxCell>
        <mxCell id="qywmRbYdawK2gE5V6afP-30" value="" style="endArrow=none;dashed=1;html=1;dashPattern=1 3;strokeWidth=2;rounded=0;entryX=0;entryY=0.5;entryDx=0;entryDy=0;exitX=0.979;exitY=0.363;exitDx=0;exitDy=0;exitPerimeter=0;fontSize=20;startArrow=open;startFill=0;startSize=12;fontStyle=1" parent="1" source="Kiu_sgeR9yTWTMrZRUj6-40" target="qywmRbYdawK2gE5V6afP-11" edge="1">
          <mxGeometry width="50" height="50" relative="1" as="geometry">
            <mxPoint x="-8470.365000000002" y="1212.4700000000003" as="sourcePoint" />
            <mxPoint x="-8137.92" y="1105" as="targetPoint" />
          </mxGeometry>
        </mxCell>
        <mxCell id="qywmRbYdawK2gE5V6afP-31" value="" style="endArrow=none;dashed=1;html=1;dashPattern=1 3;strokeWidth=2;rounded=0;entryX=0;entryY=0.5;entryDx=0;entryDy=0;exitX=0.989;exitY=0.591;exitDx=0;exitDy=0;fontSize=20;startArrow=open;startFill=0;startSize=12;exitPerimeter=0;fontStyle=1" parent="1" source="Kiu_sgeR9yTWTMrZRUj6-40" target="qywmRbYdawK2gE5V6afP-14" edge="1">
          <mxGeometry width="50" height="50" relative="1" as="geometry">
            <mxPoint x="-8466.92" y="1225" as="sourcePoint" />
            <mxPoint x="-8127.92" y="1115" as="targetPoint" />
          </mxGeometry>
        </mxCell>
        <mxCell id="qywmRbYdawK2gE5V6afP-32" value="" style="endArrow=none;dashed=1;html=1;dashPattern=1 3;strokeWidth=2;rounded=0;entryX=0;entryY=0.5;entryDx=0;entryDy=0;exitX=0.97;exitY=0.648;exitDx=0;exitDy=0;exitPerimeter=0;fontSize=20;startArrow=open;startFill=0;startSize=12;fontStyle=1" parent="1" source="Kiu_sgeR9yTWTMrZRUj6-40" target="qywmRbYdawK2gE5V6afP-15" edge="1">
          <mxGeometry width="50" height="50" relative="1" as="geometry">
            <mxPoint x="-8466.654999999999" y="1235.08" as="sourcePoint" />
            <mxPoint x="-8117.92" y="1125" as="targetPoint" />
          </mxGeometry>
        </mxCell>
        <mxCell id="qywmRbYdawK2gE5V6afP-33" value="" style="endArrow=none;dashed=1;html=1;dashPattern=1 3;strokeWidth=2;rounded=0;exitX=0.993;exitY=0.538;exitDx=0;exitDy=0;exitPerimeter=0;fontSize=20;startArrow=open;startFill=0;startSize=12;entryX=0;entryY=0.5;entryDx=0;entryDy=0;fontStyle=1" parent="1" source="Kiu_sgeR9yTWTMrZRUj6-40" target="qywmRbYdawK2gE5V6afP-13" edge="1">
          <mxGeometry width="50" height="50" relative="1" as="geometry">
            <mxPoint x="-8477.92" y="1240" as="sourcePoint" />
            <mxPoint x="-8147.92" y="1490" as="targetPoint" />
          </mxGeometry>
        </mxCell>
        <mxCell id="qywmRbYdawK2gE5V6afP-34" value="" style="endArrow=none;dashed=1;html=1;dashPattern=1 3;strokeWidth=2;rounded=0;entryX=0;entryY=0.5;entryDx=0;entryDy=0;exitX=0.944;exitY=0.719;exitDx=0;exitDy=0;exitPerimeter=0;fontSize=20;startArrow=open;startFill=0;startSize=12;fontStyle=1" parent="1" source="Kiu_sgeR9yTWTMrZRUj6-40" target="qywmRbYdawK2gE5V6afP-16" edge="1">
          <mxGeometry width="50" height="50" relative="1" as="geometry">
            <mxPoint x="-8482.025000000001" y="1245.0200000000004" as="sourcePoint" />
            <mxPoint x="-8097.92" y="1145" as="targetPoint" />
          </mxGeometry>
        </mxCell>
        <mxCell id="qywmRbYdawK2gE5V6afP-37" value="&lt;font style=&quot;font-size: 20px;&quot;&gt;&amp;lt;&amp;lt;extend&amp;gt;&amp;gt;&lt;/font&gt;" style="text;html=1;align=center;verticalAlign=middle;resizable=0;points=[];autosize=1;strokeColor=none;fillColor=none;fontSize=20;fontStyle=1;strokeWidth=2;" parent="1" vertex="1">
          <mxGeometry x="-8336.06" y="1275" width="130" height="40" as="geometry" />
        </mxCell>
        <mxCell id="qywmRbYdawK2gE5V6afP-39" value="&lt;font style=&quot;font-size: 20px;&quot;&gt;&amp;lt;&amp;lt;extend&amp;gt;&amp;gt;&lt;/font&gt;" style="text;html=1;align=center;verticalAlign=middle;resizable=0;points=[];autosize=1;strokeColor=none;fillColor=none;fontSize=20;fontStyle=1;strokeWidth=2;" parent="1" vertex="1">
          <mxGeometry x="-8344.08" y="1330" width="130" height="40" as="geometry" />
        </mxCell>
        <mxCell id="qywmRbYdawK2gE5V6afP-40" value="&lt;font style=&quot;font-size: 20px;&quot;&gt;&amp;lt;&amp;lt;extend&amp;gt;&amp;gt;&lt;/font&gt;" style="text;html=1;align=center;verticalAlign=middle;resizable=0;points=[];autosize=1;strokeColor=none;fillColor=none;fontSize=20;fontStyle=1;strokeWidth=2;" parent="1" vertex="1">
          <mxGeometry x="-8344.21" y="1390" width="130" height="40" as="geometry" />
        </mxCell>
        <mxCell id="qywmRbYdawK2gE5V6afP-41" value="&lt;font style=&quot;font-size: 20px;&quot;&gt;&amp;lt;&amp;lt;extend&amp;gt;&amp;gt;&lt;/font&gt;" style="text;html=1;align=center;verticalAlign=middle;resizable=0;points=[];autosize=1;strokeColor=none;fillColor=none;fontSize=20;fontStyle=1;strokeWidth=2;" parent="1" vertex="1">
          <mxGeometry x="-8336.06" y="1450" width="130" height="40" as="geometry" />
        </mxCell>
        <mxCell id="qywmRbYdawK2gE5V6afP-42" value="&lt;font style=&quot;font-size: 20px;&quot;&gt;&amp;lt;&amp;lt;extend&amp;gt;&amp;gt;&lt;/font&gt;" style="text;html=1;align=center;verticalAlign=middle;resizable=0;points=[];autosize=1;strokeColor=none;fillColor=none;fontSize=20;fontStyle=1;strokeWidth=2;" parent="1" vertex="1">
          <mxGeometry x="-8344.08" y="1510" width="130" height="40" as="geometry" />
        </mxCell>
        <mxCell id="qywmRbYdawK2gE5V6afP-43" value="&lt;font style=&quot;font-size: 20px;&quot;&gt;&amp;lt;&amp;lt;extend&amp;gt;&amp;gt;&lt;/font&gt;" style="text;html=1;align=center;verticalAlign=middle;resizable=0;points=[];autosize=1;strokeColor=none;fillColor=none;fontSize=20;fontStyle=1;strokeWidth=2;" parent="1" vertex="1">
          <mxGeometry x="-8358.88" y="1570" width="130" height="40" as="geometry" />
        </mxCell>
        <mxCell id="N79VtsKuw5ZeEQ9tOyzD-1" value="Check Staff Loan eligibility." style="ellipse;whiteSpace=wrap;html=1;fontSize=20;fontStyle=1;strokeWidth=2;" parent="1" vertex="1">
          <mxGeometry x="-8115.549999999999" y="2060" width="357" height="75" as="geometry" />
        </mxCell>
        <mxCell id="N79VtsKuw5ZeEQ9tOyzD-3" value="Check Home Loan eligibility." style="ellipse;whiteSpace=wrap;html=1;fontSize=20;fontStyle=1;strokeWidth=2;" parent="1" vertex="1">
          <mxGeometry x="-8111.75" y="2157.5" width="357" height="75" as="geometry" />
        </mxCell>
        <mxCell id="N79VtsKuw5ZeEQ9tOyzD-4" value="Check vehicle Loan eligibility." style="ellipse;whiteSpace=wrap;html=1;fontSize=20;fontStyle=1;strokeWidth=2;" parent="1" vertex="1">
          <mxGeometry x="-8110" y="2245" width="357" height="75" as="geometry" />
        </mxCell>
        <mxCell id="N79VtsKuw5ZeEQ9tOyzD-5" value="Check Educational Loan eligibility." style="ellipse;whiteSpace=wrap;html=1;fontSize=20;fontStyle=1;strokeWidth=2;" parent="1" vertex="1">
          <mxGeometry x="-8110" y="2325" width="357" height="75" as="geometry" />
        </mxCell>
        <mxCell id="N79VtsKuw5ZeEQ9tOyzD-6" value="Check Emergency Loan eligibility." style="ellipse;whiteSpace=wrap;html=1;fontSize=20;fontStyle=1;strokeWidth=2;" parent="1" vertex="1">
          <mxGeometry x="-8104.129999999999" y="2417.5" width="357" height="75" as="geometry" />
        </mxCell>
        <mxCell id="N79VtsKuw5ZeEQ9tOyzD-7" value="Check Products Loan eligibility." style="ellipse;whiteSpace=wrap;html=1;fontSize=20;fontStyle=1;strokeWidth=2;" parent="1" vertex="1">
          <mxGeometry x="-8102" y="2510" width="357" height="75" as="geometry" />
        </mxCell>
        <mxCell id="N79VtsKuw5ZeEQ9tOyzD-8" value="" style="endArrow=none;dashed=1;html=1;strokeWidth=2;rounded=0;entryX=0;entryY=0.5;entryDx=0;entryDy=0;exitX=0.971;exitY=0.311;exitDx=0;exitDy=0;exitPerimeter=0;startArrow=open;startFill=0;startSize=12;fontSize=20;fontStyle=1" parent="1" source="Kiu_sgeR9yTWTMrZRUj6-65" target="N79VtsKuw5ZeEQ9tOyzD-1" edge="1">
          <mxGeometry width="50" height="50" relative="1" as="geometry">
            <mxPoint x="-8415.2" y="2280" as="sourcePoint" />
            <mxPoint x="-8365.2" y="2230" as="targetPoint" />
          </mxGeometry>
        </mxCell>
        <mxCell id="N79VtsKuw5ZeEQ9tOyzD-9" value="" style="endArrow=none;dashed=1;html=1;strokeWidth=2;rounded=0;entryX=0;entryY=0.5;entryDx=0;entryDy=0;startArrow=open;startFill=0;startSize=12;fontSize=20;fontStyle=1" parent="1" target="N79VtsKuw5ZeEQ9tOyzD-5" edge="1">
          <mxGeometry width="50" height="50" relative="1" as="geometry">
            <mxPoint x="-8415.2" y="2290" as="sourcePoint" />
            <mxPoint x="-8174.200000000001" y="1968" as="targetPoint" />
          </mxGeometry>
        </mxCell>
        <mxCell id="N79VtsKuw5ZeEQ9tOyzD-10" value="" style="endArrow=none;dashed=1;html=1;strokeWidth=2;rounded=0;entryX=0;entryY=0.5;entryDx=0;entryDy=0;exitX=0.992;exitY=0.415;exitDx=0;exitDy=0;exitPerimeter=0;startArrow=open;startFill=0;startSize=12;fontSize=20;fontStyle=1" parent="1" source="Kiu_sgeR9yTWTMrZRUj6-65" target="N79VtsKuw5ZeEQ9tOyzD-3" edge="1">
          <mxGeometry width="50" height="50" relative="1" as="geometry">
            <mxPoint x="-8415.2" y="2290" as="sourcePoint" />
            <mxPoint x="-8181.700000000001" y="1978" as="targetPoint" />
          </mxGeometry>
        </mxCell>
        <mxCell id="N79VtsKuw5ZeEQ9tOyzD-11" value="" style="endArrow=none;dashed=1;html=1;strokeWidth=2;rounded=0;entryX=0;entryY=0.5;entryDx=0;entryDy=0;exitX=1;exitY=0.5;exitDx=0;exitDy=0;startArrow=open;startFill=0;startSize=12;fontSize=20;fontStyle=1" parent="1" source="Kiu_sgeR9yTWTMrZRUj6-65" target="N79VtsKuw5ZeEQ9tOyzD-4" edge="1">
          <mxGeometry width="50" height="50" relative="1" as="geometry">
            <mxPoint x="-8385.2" y="2310" as="sourcePoint" />
            <mxPoint x="-8154.200000000001" y="1988" as="targetPoint" />
          </mxGeometry>
        </mxCell>
        <mxCell id="N79VtsKuw5ZeEQ9tOyzD-12" value="" style="endArrow=none;dashed=1;html=1;strokeWidth=2;rounded=0;entryX=0;entryY=0.5;entryDx=0;entryDy=0;exitX=0.984;exitY=0.623;exitDx=0;exitDy=0;exitPerimeter=0;startArrow=open;startFill=0;startSize=12;fontSize=20;fontStyle=1" parent="1" source="Kiu_sgeR9yTWTMrZRUj6-65" target="N79VtsKuw5ZeEQ9tOyzD-6" edge="1">
          <mxGeometry width="50" height="50" relative="1" as="geometry">
            <mxPoint x="-8415.2" y="2290" as="sourcePoint" />
            <mxPoint x="-8175.200000000001" y="2450" as="targetPoint" />
          </mxGeometry>
        </mxCell>
        <mxCell id="N79VtsKuw5ZeEQ9tOyzD-13" value="" style="endArrow=none;dashed=1;html=1;strokeWidth=2;rounded=0;exitX=0.958;exitY=0.733;exitDx=0;exitDy=0;exitPerimeter=0;startArrow=open;startFill=0;startSize=12;entryX=0;entryY=0.5;entryDx=0;entryDy=0;fontSize=20;fontStyle=1" parent="1" source="Kiu_sgeR9yTWTMrZRUj6-65" target="N79VtsKuw5ZeEQ9tOyzD-7" edge="1">
          <mxGeometry width="50" height="50" relative="1" as="geometry">
            <mxPoint x="-8425.2" y="2300" as="sourcePoint" />
            <mxPoint x="-8155.200000000001" y="2600" as="targetPoint" />
          </mxGeometry>
        </mxCell>
        <mxCell id="4M92p2UmULwdYSb-Y5CH-1" value="&amp;lt;&amp;lt;extend&amp;gt;&amp;gt;" style="text;html=1;align=center;verticalAlign=middle;resizable=0;points=[];autosize=1;strokeColor=none;fillColor=none;fontSize=20;fontStyle=1;strokeWidth=2;" parent="1" vertex="1">
          <mxGeometry x="-8342.189999999999" y="2175" width="130" height="40" as="geometry" />
        </mxCell>
        <mxCell id="4M92p2UmULwdYSb-Y5CH-2" value="&amp;lt;&amp;lt;extend&amp;gt;&amp;gt;" style="text;html=1;align=center;verticalAlign=middle;resizable=0;points=[];autosize=1;strokeColor=none;fillColor=none;fontSize=20;fontStyle=1;strokeWidth=2;" parent="1" vertex="1">
          <mxGeometry x="-8318.04" y="2255" width="130" height="40" as="geometry" />
        </mxCell>
        <mxCell id="4M92p2UmULwdYSb-Y5CH-3" value="&amp;lt;&amp;lt;extend&amp;gt;&amp;gt;" style="text;html=1;align=center;verticalAlign=middle;resizable=0;points=[];autosize=1;strokeColor=none;fillColor=none;fontSize=20;fontStyle=1;strokeWidth=2;" parent="1" vertex="1">
          <mxGeometry x="-8305.480000000001" y="2296" width="130" height="40" as="geometry" />
        </mxCell>
        <mxCell id="4M92p2UmULwdYSb-Y5CH-4" value="&amp;lt;&amp;lt;extend&amp;gt;&amp;gt;" style="text;html=1;align=center;verticalAlign=middle;resizable=0;points=[];autosize=1;strokeColor=none;fillColor=none;fontSize=20;fontStyle=1;strokeWidth=2;" parent="1" vertex="1">
          <mxGeometry x="-8305.48" y="2342.5" width="130" height="40" as="geometry" />
        </mxCell>
        <mxCell id="4M92p2UmULwdYSb-Y5CH-5" value="&amp;lt;&amp;lt;extend&amp;gt;&amp;gt;" style="text;html=1;align=center;verticalAlign=middle;resizable=0;points=[];autosize=1;strokeColor=none;fillColor=none;fontSize=20;fontStyle=1;strokeWidth=2;" parent="1" vertex="1">
          <mxGeometry x="-8305.48" y="2400" width="130" height="40" as="geometry" />
        </mxCell>
        <mxCell id="4M92p2UmULwdYSb-Y5CH-7" value="&amp;lt;&amp;lt;extend&amp;gt;&amp;gt;" style="text;html=1;align=center;verticalAlign=middle;resizable=0;points=[];autosize=1;strokeColor=none;fillColor=none;fontSize=20;fontStyle=1;strokeWidth=2;" parent="1" vertex="1">
          <mxGeometry x="-8322.29" y="2215" width="130" height="40" as="geometry" />
        </mxCell>
        <mxCell id="4M92p2UmULwdYSb-Y5CH-24" value="HR" style="shape=umlActor;verticalLabelPosition=bottom;verticalAlign=top;html=1;fontSize=20;fontStyle=1;strokeWidth=2;" parent="1" vertex="1">
          <mxGeometry x="-9519.06" y="3397" width="50" height="90" as="geometry" />
        </mxCell>
        <mxCell id="4M92p2UmULwdYSb-Y5CH-25" value="&lt;font style=&quot;font-size: 20px;&quot;&gt;Generate KPI report&lt;/font&gt;" style="ellipse;whiteSpace=wrap;html=1;fontSize=20;fontStyle=1;strokeWidth=2;" parent="1" vertex="1">
          <mxGeometry x="-8781.3" y="8380" width="374" height="80" as="geometry" />
        </mxCell>
        <mxCell id="4M92p2UmULwdYSb-Y5CH-26" value="&lt;font style=&quot;font-size: 20px;&quot;&gt;Generate Monthly KPI report&lt;/font&gt;" style="ellipse;whiteSpace=wrap;html=1;fontSize=20;fontStyle=1;strokeWidth=2;" parent="1" vertex="1">
          <mxGeometry x="-8116.450000000001" y="8365" width="326.45" height="85" as="geometry" />
        </mxCell>
        <mxCell id="4M92p2UmULwdYSb-Y5CH-27" value="&lt;font style=&quot;font-size: 20px;&quot;&gt;Generate Annual KPI report&lt;/font&gt;" style="ellipse;whiteSpace=wrap;html=1;fontSize=20;fontStyle=1;strokeWidth=2;" parent="1" vertex="1">
          <mxGeometry x="-8121.42" y="8470" width="341.42" height="80" as="geometry" />
        </mxCell>
        <mxCell id="4M92p2UmULwdYSb-Y5CH-28" value="&lt;font style=&quot;font-size: 20px;&quot;&gt;Generate KPI&lt;/font&gt;" style="ellipse;whiteSpace=wrap;html=1;fontSize=20;fontStyle=1;strokeWidth=2;" parent="1" vertex="1">
          <mxGeometry x="-8744.66" y="4220" width="381" height="70" as="geometry" />
        </mxCell>
        <mxCell id="4M92p2UmULwdYSb-Y5CH-58" value="" style="endArrow=open;dashed=1;html=1;rounded=0;exitX=0;exitY=0.5;exitDx=0;exitDy=0;entryX=1;entryY=0.5;entryDx=0;entryDy=0;endFill=0;endSize=12;fontSize=20;fontStyle=1;strokeWidth=2;" parent="1" source="l3vJUugmlYN3g6FOaKyB-42" target="Kiu_sgeR9yTWTMrZRUj6-37" edge="1">
          <mxGeometry width="50" height="50" relative="1" as="geometry">
            <mxPoint x="-8480.45" y="6170" as="sourcePoint" />
            <mxPoint x="-8430.45" y="6120" as="targetPoint" />
          </mxGeometry>
        </mxCell>
        <mxCell id="4M92p2UmULwdYSb-Y5CH-59" value="" style="endArrow=open;dashed=1;html=1;rounded=0;exitX=0;exitY=0.5;exitDx=0;exitDy=0;entryX=0.981;entryY=0.644;entryDx=0;entryDy=0;endFill=0;endSize=12;entryPerimeter=0;fontSize=20;fontStyle=1;strokeWidth=2;" parent="1" source="l3vJUugmlYN3g6FOaKyB-41" target="Kiu_sgeR9yTWTMrZRUj6-37" edge="1">
          <mxGeometry width="50" height="50" relative="1" as="geometry">
            <mxPoint x="-9105.45" y="5683" as="sourcePoint" />
            <mxPoint x="-8821.45" y="5708" as="targetPoint" />
          </mxGeometry>
        </mxCell>
        <mxCell id="4M92p2UmULwdYSb-Y5CH-62" value="" style="endArrow=open;dashed=1;html=1;rounded=0;exitX=0;exitY=0.5;exitDx=0;exitDy=0;entryX=1;entryY=0.5;entryDx=0;entryDy=0;endFill=0;endSize=12;fontSize=20;fontStyle=1;strokeWidth=2;" parent="1" source="l3vJUugmlYN3g6FOaKyB-12" target="1_gvQA9Mw1F-bFMWtdlo-4" edge="1">
          <mxGeometry width="50" height="50" relative="1" as="geometry">
            <mxPoint x="-9094.09" y="5848" as="sourcePoint" />
            <mxPoint x="-8804.09" y="5750" as="targetPoint" />
          </mxGeometry>
        </mxCell>
        <mxCell id="4M92p2UmULwdYSb-Y5CH-63" value="" style="endArrow=open;dashed=1;html=1;rounded=0;exitX=0;exitY=0.5;exitDx=0;exitDy=0;endFill=0;endSize=12;fontSize=20;fontStyle=1;strokeWidth=2;" parent="1" source="l3vJUugmlYN3g6FOaKyB-13" edge="1">
          <mxGeometry width="50" height="50" relative="1" as="geometry">
            <mxPoint x="-9099.09" y="5938" as="sourcePoint" />
            <mxPoint x="-8475.28" y="5920" as="targetPoint" />
          </mxGeometry>
        </mxCell>
        <mxCell id="4M92p2UmULwdYSb-Y5CH-64" value="" style="endArrow=open;dashed=1;html=1;rounded=0;exitX=0;exitY=0.5;exitDx=0;exitDy=0;entryX=1;entryY=0.5;entryDx=0;entryDy=0;endFill=0;endSize=12;fontSize=20;fontStyle=1;strokeWidth=2;" parent="1" source="l3vJUugmlYN3g6FOaKyB-14" target="1_gvQA9Mw1F-bFMWtdlo-3" edge="1">
          <mxGeometry width="50" height="50" relative="1" as="geometry">
            <mxPoint x="-9089.09" y="5948" as="sourcePoint" />
            <mxPoint x="-8808.09" y="5920" as="targetPoint" />
          </mxGeometry>
        </mxCell>
        <mxCell id="4M92p2UmULwdYSb-Y5CH-65" value="" style="endArrow=open;dashed=1;html=1;rounded=0;exitX=0;exitY=0.5;exitDx=0;exitDy=0;entryX=0.89;entryY=0.8;entryDx=0;entryDy=0;entryPerimeter=0;endFill=0;endSize=12;fontSize=20;fontStyle=1;strokeWidth=2;" parent="1" source="l3vJUugmlYN3g6FOaKyB-15" target="1_gvQA9Mw1F-bFMWtdlo-3" edge="1">
          <mxGeometry width="50" height="50" relative="1" as="geometry">
            <mxPoint x="-9079.09" y="5958" as="sourcePoint" />
            <mxPoint x="-8813.09" y="6090" as="targetPoint" />
          </mxGeometry>
        </mxCell>
        <mxCell id="4M92p2UmULwdYSb-Y5CH-66" value="" style="endArrow=open;dashed=1;html=1;rounded=0;exitX=0;exitY=0.5;exitDx=0;exitDy=0;entryX=1;entryY=0.5;entryDx=0;entryDy=0;endFill=0;endSize=12;fontSize=20;fontStyle=1;strokeWidth=2;" parent="1" source="l3vJUugmlYN3g6FOaKyB-16" target="l3vJUugmlYN3g6FOaKyB-6" edge="1">
          <mxGeometry width="50" height="50" relative="1" as="geometry">
            <mxPoint x="-9102.09" y="6208" as="sourcePoint" />
            <mxPoint x="-8811.09" y="6106" as="targetPoint" />
          </mxGeometry>
        </mxCell>
        <mxCell id="4M92p2UmULwdYSb-Y5CH-67" value="" style="endArrow=open;dashed=1;html=1;rounded=0;exitX=0;exitY=0.5;exitDx=0;exitDy=0;entryX=0.935;entryY=0.743;entryDx=0;entryDy=0;endFill=0;endSize=12;entryPerimeter=0;fontSize=20;fontStyle=1;strokeWidth=2;" parent="1" source="l3vJUugmlYN3g6FOaKyB-17" target="l3vJUugmlYN3g6FOaKyB-6" edge="1">
          <mxGeometry width="50" height="50" relative="1" as="geometry">
            <mxPoint x="-9103.09" y="6328" as="sourcePoint" />
            <mxPoint x="-8803.09" y="6345" as="targetPoint" />
          </mxGeometry>
        </mxCell>
        <mxCell id="4M92p2UmULwdYSb-Y5CH-69" value="" style="endArrow=open;dashed=1;html=1;rounded=0;exitX=0;exitY=0.5;exitDx=0;exitDy=0;entryX=0.973;entryY=0.643;entryDx=0;entryDy=0;endFill=0;endSize=12;entryPerimeter=0;fontSize=20;fontStyle=1;strokeWidth=2;" parent="1" source="l3vJUugmlYN3g6FOaKyB-19" target="1_gvQA9Mw1F-bFMWtdlo-2" edge="1">
          <mxGeometry width="50" height="50" relative="1" as="geometry">
            <mxPoint x="-9083.09" y="6348" as="sourcePoint" />
            <mxPoint x="-8783.09" y="6365" as="targetPoint" />
          </mxGeometry>
        </mxCell>
        <mxCell id="4M92p2UmULwdYSb-Y5CH-70" value="" style="endArrow=open;dashed=1;html=1;rounded=0;exitX=0;exitY=0.5;exitDx=0;exitDy=0;entryX=1;entryY=0.5;entryDx=0;entryDy=0;endFill=0;endSize=12;fontSize=20;fontStyle=1;strokeWidth=2;" parent="1" source="l3vJUugmlYN3g6FOaKyB-20" target="1_gvQA9Mw1F-bFMWtdlo-21" edge="1">
          <mxGeometry width="50" height="50" relative="1" as="geometry">
            <mxPoint x="-9090.84" y="6568" as="sourcePoint" />
            <mxPoint x="-8797.84" y="6450" as="targetPoint" />
          </mxGeometry>
        </mxCell>
        <mxCell id="4M92p2UmULwdYSb-Y5CH-71" value="" style="endArrow=open;dashed=1;html=1;rounded=0;exitX=0;exitY=0.5;exitDx=0;exitDy=0;endFill=0;endSize=12;entryX=0.903;entryY=0.8;entryDx=0;entryDy=0;entryPerimeter=0;fontSize=20;fontStyle=1;strokeWidth=2;" parent="1" source="l3vJUugmlYN3g6FOaKyB-21" target="1_gvQA9Mw1F-bFMWtdlo-21" edge="1">
          <mxGeometry width="50" height="50" relative="1" as="geometry">
            <mxPoint x="-9080.84" y="6578" as="sourcePoint" />
            <mxPoint x="-8800.84" y="6730" as="targetPoint" />
          </mxGeometry>
        </mxCell>
        <mxCell id="4M92p2UmULwdYSb-Y5CH-72" value="" style="endArrow=open;dashed=1;html=1;rounded=0;exitX=0;exitY=0.5;exitDx=0;exitDy=0;entryX=0.99;entryY=0.389;entryDx=0;entryDy=0;entryPerimeter=0;endFill=0;endSize=12;fontSize=20;fontStyle=1;strokeWidth=2;" parent="1" source="l3vJUugmlYN3g6FOaKyB-22" target="1_gvQA9Mw1F-bFMWtdlo-22" edge="1">
          <mxGeometry width="50" height="50" relative="1" as="geometry">
            <mxPoint x="-9082.84" y="6820" as="sourcePoint" />
            <mxPoint x="-8790.84" y="6740" as="targetPoint" />
          </mxGeometry>
        </mxCell>
        <mxCell id="4M92p2UmULwdYSb-Y5CH-74" value="" style="endArrow=open;dashed=1;html=1;rounded=0;exitX=0;exitY=0.5;exitDx=0;exitDy=0;entryX=0.971;entryY=0.681;entryDx=0;entryDy=0;endFill=0;endSize=12;entryPerimeter=0;fontSize=20;fontStyle=1;strokeWidth=2;" parent="1" source="l3vJUugmlYN3g6FOaKyB-23" target="1_gvQA9Mw1F-bFMWtdlo-22" edge="1">
          <mxGeometry width="50" height="50" relative="1" as="geometry">
            <mxPoint x="-9064.84" y="6948" as="sourcePoint" />
            <mxPoint x="-8788.84" y="6955" as="targetPoint" />
          </mxGeometry>
        </mxCell>
        <mxCell id="4M92p2UmULwdYSb-Y5CH-75" value="" style="endArrow=open;dashed=1;html=1;rounded=0;entryX=1;entryY=0.5;entryDx=0;entryDy=0;endFill=0;endSize=12;exitX=0.005;exitY=0.451;exitDx=0;exitDy=0;exitPerimeter=0;fontSize=20;fontStyle=1;strokeWidth=2;" parent="1" source="l3vJUugmlYN3g6FOaKyB-24" target="1_gvQA9Mw1F-bFMWtdlo-30" edge="1">
          <mxGeometry width="50" height="50" relative="1" as="geometry">
            <mxPoint x="-8234.990000000002" y="7152" as="sourcePoint" />
            <mxPoint x="-8796.8" y="6955" as="targetPoint" />
          </mxGeometry>
        </mxCell>
        <mxCell id="4M92p2UmULwdYSb-Y5CH-76" value="" style="endArrow=open;dashed=1;html=1;rounded=0;exitX=0;exitY=0.5;exitDx=0;exitDy=0;entryX=0.962;entryY=0.694;entryDx=0;entryDy=0;endFill=0;endSize=12;entryPerimeter=0;fontSize=20;fontStyle=1;strokeWidth=2;" parent="1" source="l3vJUugmlYN3g6FOaKyB-25" target="1_gvQA9Mw1F-bFMWtdlo-30" edge="1">
          <mxGeometry width="50" height="50" relative="1" as="geometry">
            <mxPoint x="-9060.8" y="7158" as="sourcePoint" />
            <mxPoint x="-8796.8" y="7155" as="targetPoint" />
          </mxGeometry>
        </mxCell>
        <mxCell id="4M92p2UmULwdYSb-Y5CH-77" value="" style="endArrow=open;dashed=1;html=1;rounded=0;exitX=0;exitY=0.5;exitDx=0;exitDy=0;entryX=0.971;entryY=0.309;entryDx=0;entryDy=0;endFill=0;endSize=12;entryPerimeter=0;fontSize=20;fontStyle=1;strokeWidth=2;" parent="1" source="l3vJUugmlYN3g6FOaKyB-26" target="1_gvQA9Mw1F-bFMWtdlo-31" edge="1">
          <mxGeometry width="50" height="50" relative="1" as="geometry">
            <mxPoint x="-9060.8" y="7238" as="sourcePoint" />
            <mxPoint x="-8786.8" y="7165" as="targetPoint" />
          </mxGeometry>
        </mxCell>
        <mxCell id="4M92p2UmULwdYSb-Y5CH-78" value="" style="endArrow=open;dashed=1;html=1;rounded=0;exitX=0;exitY=0.5;exitDx=0;exitDy=0;entryX=0.97;entryY=0.671;entryDx=0;entryDy=0;endFill=0;endSize=12;entryPerimeter=0;fontSize=20;fontStyle=1;strokeWidth=2;" parent="1" source="l3vJUugmlYN3g6FOaKyB-27" target="1_gvQA9Mw1F-bFMWtdlo-31" edge="1">
          <mxGeometry width="50" height="50" relative="1" as="geometry">
            <mxPoint x="-9057.8" y="7388" as="sourcePoint" />
            <mxPoint x="-8783.8" y="7425" as="targetPoint" />
          </mxGeometry>
        </mxCell>
        <mxCell id="4M92p2UmULwdYSb-Y5CH-79" value="" style="endArrow=open;dashed=1;html=1;rounded=0;exitX=0.014;exitY=0.385;exitDx=0;exitDy=0;endFill=0;endSize=12;exitPerimeter=0;fontSize=20;fontStyle=1;strokeWidth=2;" parent="1" source="l3vJUugmlYN3g6FOaKyB-28" target="1_gvQA9Mw1F-bFMWtdlo-32" edge="1">
          <mxGeometry width="50" height="50" relative="1" as="geometry">
            <mxPoint x="-9057.8" y="7468" as="sourcePoint" />
            <mxPoint x="-8414.990000000002" y="7590" as="targetPoint" />
          </mxGeometry>
        </mxCell>
        <mxCell id="4M92p2UmULwdYSb-Y5CH-80" value="" style="endArrow=open;dashed=1;html=1;rounded=0;exitX=0;exitY=0.5;exitDx=0;exitDy=0;entryX=0.976;entryY=0.63;entryDx=0;entryDy=0;entryPerimeter=0;endFill=0;endSize=12;fontSize=20;fontStyle=1;strokeWidth=2;" parent="1" source="l3vJUugmlYN3g6FOaKyB-29" target="1_gvQA9Mw1F-bFMWtdlo-32" edge="1">
          <mxGeometry width="50" height="50" relative="1" as="geometry">
            <mxPoint x="-9047.8" y="7478" as="sourcePoint" />
            <mxPoint x="-8763.8" y="7445" as="targetPoint" />
          </mxGeometry>
        </mxCell>
        <mxCell id="4M92p2UmULwdYSb-Y5CH-81" value="" style="endArrow=open;dashed=1;html=1;rounded=0;endFill=0;endSize=12;exitX=0;exitY=0.5;exitDx=0;exitDy=0;fontSize=20;fontStyle=1;strokeWidth=2;" parent="1" source="l3vJUugmlYN3g6FOaKyB-30" edge="1">
          <mxGeometry width="50" height="50" relative="1" as="geometry">
            <mxPoint x="-8224.990000000002" y="7790" as="sourcePoint" />
            <mxPoint x="-8414.990000000002" y="7790" as="targetPoint" />
          </mxGeometry>
        </mxCell>
        <mxCell id="4M92p2UmULwdYSb-Y5CH-82" value="" style="endArrow=open;dashed=1;html=1;rounded=0;exitX=0;exitY=0.5;exitDx=0;exitDy=0;entryX=0.94;entryY=0.724;entryDx=0;entryDy=0;endFill=0;endSize=12;entryPerimeter=0;fontSize=20;fontStyle=1;strokeWidth=2;" parent="1" source="l3vJUugmlYN3g6FOaKyB-31" target="1_gvQA9Mw1F-bFMWtdlo-33" edge="1">
          <mxGeometry width="50" height="50" relative="1" as="geometry">
            <mxPoint x="-9055.8" y="7798" as="sourcePoint" />
            <mxPoint x="-8775.8" y="7805" as="targetPoint" />
          </mxGeometry>
        </mxCell>
        <mxCell id="4M92p2UmULwdYSb-Y5CH-83" value="" style="endArrow=open;dashed=1;html=1;rounded=0;exitX=0;exitY=0.5;exitDx=0;exitDy=0;endFill=0;endSize=12;entryX=0.979;entryY=0.347;entryDx=0;entryDy=0;entryPerimeter=0;fontSize=20;fontStyle=1;strokeWidth=2;" parent="1" source="l3vJUugmlYN3g6FOaKyB-32" target="1_gvQA9Mw1F-bFMWtdlo-34" edge="1">
          <mxGeometry width="50" height="50" relative="1" as="geometry">
            <mxPoint x="-9055.8" y="7878" as="sourcePoint" />
            <mxPoint x="-9064.990000000002" y="8110" as="targetPoint" />
            <Array as="points" />
          </mxGeometry>
        </mxCell>
        <mxCell id="4M92p2UmULwdYSb-Y5CH-84" value="" style="endArrow=open;dashed=1;html=1;rounded=0;exitX=0;exitY=0.5;exitDx=0;exitDy=0;endFill=0;endSize=12;entryX=0.969;entryY=0.669;entryDx=0;entryDy=0;entryPerimeter=0;fontSize=20;fontStyle=1;strokeWidth=2;" parent="1" source="l3vJUugmlYN3g6FOaKyB-33" target="1_gvQA9Mw1F-bFMWtdlo-34" edge="1">
          <mxGeometry width="50" height="50" relative="1" as="geometry">
            <mxPoint x="-9051.8" y="8018" as="sourcePoint" />
            <mxPoint x="-8424.990000000002" y="8040" as="targetPoint" />
            <Array as="points" />
          </mxGeometry>
        </mxCell>
        <mxCell id="4M92p2UmULwdYSb-Y5CH-85" value="" style="endArrow=open;dashed=1;html=1;rounded=0;endFill=0;endSize=12;entryX=0.992;entryY=0.447;entryDx=0;entryDy=0;entryPerimeter=0;exitX=0.007;exitY=0.407;exitDx=0;exitDy=0;exitPerimeter=0;fontSize=20;fontStyle=1;strokeWidth=2;" parent="1" source="l3vJUugmlYN3g6FOaKyB-34" target="1_gvQA9Mw1F-bFMWtdlo-35" edge="1">
          <mxGeometry width="50" height="50" relative="1" as="geometry">
            <mxPoint x="-8204.990000000002" y="8208" as="sourcePoint" />
            <mxPoint x="-8414.990000000002" y="8208" as="targetPoint" />
            <Array as="points" />
          </mxGeometry>
        </mxCell>
        <mxCell id="4M92p2UmULwdYSb-Y5CH-86" value="" style="endArrow=open;dashed=1;html=1;rounded=0;exitX=0;exitY=0.5;exitDx=0;exitDy=0;entryX=0.935;entryY=0.756;entryDx=0;entryDy=0;entryPerimeter=0;endFill=0;endSize=12;fontSize=20;fontStyle=1;strokeWidth=2;" parent="1" source="l3vJUugmlYN3g6FOaKyB-35" target="1_gvQA9Mw1F-bFMWtdlo-35" edge="1">
          <mxGeometry width="50" height="50" relative="1" as="geometry">
            <mxPoint x="-9041.8" y="8108" as="sourcePoint" />
            <mxPoint x="-8751.8" y="8058" as="targetPoint" />
            <Array as="points" />
          </mxGeometry>
        </mxCell>
        <mxCell id="4M92p2UmULwdYSb-Y5CH-87" value="" style="endArrow=open;dashed=1;html=1;rounded=0;entryX=0.993;entryY=0.4;entryDx=0;entryDy=0;entryPerimeter=0;endFill=0;endSize=12;exitX=0;exitY=0.465;exitDx=0;exitDy=0;exitPerimeter=0;fontSize=20;fontStyle=1;strokeWidth=2;" parent="1" source="4M92p2UmULwdYSb-Y5CH-26" target="4M92p2UmULwdYSb-Y5CH-25" edge="1">
          <mxGeometry width="50" height="50" relative="1" as="geometry">
            <mxPoint x="-8214.990000000002" y="8400" as="sourcePoint" />
            <mxPoint x="-8744.8" y="8238" as="targetPoint" />
            <Array as="points" />
          </mxGeometry>
        </mxCell>
        <mxCell id="4M92p2UmULwdYSb-Y5CH-88" value="" style="endArrow=open;dashed=1;html=1;rounded=0;exitX=0;exitY=0.5;exitDx=0;exitDy=0;entryX=0.963;entryY=0.7;entryDx=0;entryDy=0;endFill=0;endSize=12;entryPerimeter=0;fontSize=20;fontStyle=1;strokeWidth=2;" parent="1" source="4M92p2UmULwdYSb-Y5CH-27" target="4M92p2UmULwdYSb-Y5CH-25" edge="1">
          <mxGeometry width="50" height="50" relative="1" as="geometry">
            <mxPoint x="-9031.8" y="8308" as="sourcePoint" />
            <mxPoint x="-8734.8" y="8248" as="targetPoint" />
            <Array as="points" />
          </mxGeometry>
        </mxCell>
        <mxCell id="4M92p2UmULwdYSb-Y5CH-89" value="" style="endArrow=none;dashed=1;html=1;rounded=0;exitX=0;exitY=0.5;exitDx=0;exitDy=0;startArrow=open;startFill=0;startSize=12;entryX=0.954;entryY=0.742;entryDx=0;entryDy=0;entryPerimeter=0;fontSize=20;fontStyle=1;strokeWidth=2;" parent="1" source="l3vJUugmlYN3g6FOaKyB-43" target="Kiu_sgeR9yTWTMrZRUj6-25" edge="1">
          <mxGeometry width="50" height="50" relative="1" as="geometry">
            <mxPoint x="-8870.45" y="5260" as="sourcePoint" />
            <mxPoint x="-8452.25" y="5218" as="targetPoint" />
          </mxGeometry>
        </mxCell>
        <mxCell id="4M92p2UmULwdYSb-Y5CH-90" value="" style="endArrow=open;dashed=1;html=1;rounded=0;exitX=0.016;exitY=0.42;exitDx=0;exitDy=0;exitPerimeter=0;endFill=0;endSize=12;entryX=0.956;entryY=0.707;entryDx=0;entryDy=0;entryPerimeter=0;fontSize=20;fontStyle=1;strokeWidth=2;" parent="1" source="qywmRbYdawK2gE5V6afP-9" target="Kiu_sgeR9yTWTMrZRUj6-66" edge="1">
          <mxGeometry width="50" height="50" relative="1" as="geometry">
            <mxPoint x="-9082.489999999998" y="5105" as="sourcePoint" />
            <mxPoint x="-8815.45" y="4950" as="targetPoint" />
          </mxGeometry>
        </mxCell>
        <mxCell id="4M92p2UmULwdYSb-Y5CH-91" value="" style="endArrow=open;dashed=1;html=1;rounded=0;exitX=0;exitY=0.5;exitDx=0;exitDy=0;endFill=0;endSize=12;entryX=0.999;entryY=0.546;entryDx=0;entryDy=0;entryPerimeter=0;fontSize=20;fontStyle=1;strokeWidth=2;" parent="1" source="qywmRbYdawK2gE5V6afP-8" target="Kiu_sgeR9yTWTMrZRUj6-66" edge="1">
          <mxGeometry width="50" height="50" relative="1" as="geometry">
            <mxPoint x="-9077.369999999999" y="5093" as="sourcePoint" />
            <mxPoint x="-8814.369999999999" y="4940" as="targetPoint" />
          </mxGeometry>
        </mxCell>
        <mxCell id="4M92p2UmULwdYSb-Y5CH-92" value="" style="endArrow=open;dashed=1;html=1;rounded=0;exitX=0;exitY=0.5;exitDx=0;exitDy=0;entryX=0.989;entryY=0.396;entryDx=0;entryDy=0;entryPerimeter=0;endFill=0;endSize=12;fontSize=20;fontStyle=1;strokeWidth=2;" parent="1" source="qywmRbYdawK2gE5V6afP-7" target="Kiu_sgeR9yTWTMrZRUj6-66" edge="1">
          <mxGeometry width="50" height="50" relative="1" as="geometry">
            <mxPoint x="-9070.91" y="5083" as="sourcePoint" />
            <mxPoint x="-8807.91" y="4930" as="targetPoint" />
          </mxGeometry>
        </mxCell>
        <mxCell id="4M92p2UmULwdYSb-Y5CH-93" value="" style="endArrow=open;dashed=1;html=1;rounded=0;exitX=0;exitY=0.5;exitDx=0;exitDy=0;entryX=0.959;entryY=0.293;entryDx=0;entryDy=0;entryPerimeter=0;endFill=0;endSize=12;fontSize=20;fontStyle=1;strokeWidth=2;" parent="1" source="qywmRbYdawK2gE5V6afP-6" target="Kiu_sgeR9yTWTMrZRUj6-66" edge="1">
          <mxGeometry width="50" height="50" relative="1" as="geometry">
            <mxPoint x="-9048.45" y="5133" as="sourcePoint" />
            <mxPoint x="-8820.45" y="4950" as="targetPoint" />
          </mxGeometry>
        </mxCell>
        <mxCell id="4M92p2UmULwdYSb-Y5CH-94" value="" style="endArrow=open;dashed=1;html=1;rounded=0;exitX=0;exitY=0.5;exitDx=0;exitDy=0;entryX=0.906;entryY=0.214;entryDx=0;entryDy=0;entryPerimeter=0;endFill=0;endSize=12;fontSize=20;fontStyle=1;strokeWidth=2;" parent="1" source="qywmRbYdawK2gE5V6afP-5" target="Kiu_sgeR9yTWTMrZRUj6-66" edge="1">
          <mxGeometry width="50" height="50" relative="1" as="geometry">
            <mxPoint x="-9038.45" y="5143" as="sourcePoint" />
            <mxPoint x="-8775.45" y="4990" as="targetPoint" />
          </mxGeometry>
        </mxCell>
        <mxCell id="4M92p2UmULwdYSb-Y5CH-95" value="" style="endArrow=open;dashed=1;html=1;rounded=0;exitX=0;exitY=0.5;exitDx=0;exitDy=0;entryX=1;entryY=0;entryDx=0;entryDy=0;endFill=0;endSize=12;fontSize=20;fontStyle=1;strokeWidth=2;" parent="1" source="qywmRbYdawK2gE5V6afP-3" target="Kiu_sgeR9yTWTMrZRUj6-66" edge="1">
          <mxGeometry width="50" height="50" relative="1" as="geometry">
            <mxPoint x="-9028.45" y="5153" as="sourcePoint" />
            <mxPoint x="-8765.45" y="5000" as="targetPoint" />
          </mxGeometry>
        </mxCell>
        <mxCell id="4M92p2UmULwdYSb-Y5CH-96" value="" style="endArrow=none;dashed=1;html=1;rounded=0;exitX=1;exitY=0;exitDx=0;exitDy=0;startArrow=open;startFill=0;startSize=12;entryX=0;entryY=1;entryDx=0;entryDy=0;fontSize=20;fontStyle=1;strokeWidth=2;" parent="1" source="l3vJUugmlYN3g6FOaKyB-3" target="F71kkK3N29jPOHGHF4Ug-22" edge="1">
          <mxGeometry width="50" height="50" relative="1" as="geometry">
            <mxPoint x="-8771.929999999998" y="3960" as="sourcePoint" />
            <mxPoint x="-8721.929999999998" y="3910" as="targetPoint" />
          </mxGeometry>
        </mxCell>
        <mxCell id="4M92p2UmULwdYSb-Y5CH-97" value="" style="endArrow=none;dashed=1;html=1;rounded=0;entryX=0.729;entryY=0.957;entryDx=0;entryDy=0;startArrow=open;startFill=0;startSize=12;entryPerimeter=0;fontSize=20;fontStyle=1;strokeWidth=2;" parent="1" source="1_gvQA9Mw1F-bFMWtdlo-15" target="F71kkK3N29jPOHGHF4Ug-22" edge="1">
          <mxGeometry width="50" height="50" relative="1" as="geometry">
            <mxPoint x="-8987.929999999998" y="4138" as="sourcePoint" />
            <mxPoint x="-8711.929999999998" y="3920" as="targetPoint" />
          </mxGeometry>
        </mxCell>
        <mxCell id="4M92p2UmULwdYSb-Y5CH-99" value="" style="endArrow=none;dashed=1;html=1;rounded=0;entryX=0.5;entryY=1;entryDx=0;entryDy=0;startArrow=open;startFill=0;startSize=12;fontSize=20;fontStyle=1;strokeWidth=2;" parent="1" source="1_gvQA9Mw1F-bFMWtdlo-16" target="F71kkK3N29jPOHGHF4Ug-22" edge="1">
          <mxGeometry width="50" height="50" relative="1" as="geometry">
            <mxPoint x="-8967.929999999998" y="4158" as="sourcePoint" />
            <mxPoint x="-8691.929999999998" y="3940" as="targetPoint" />
          </mxGeometry>
        </mxCell>
        <mxCell id="4M92p2UmULwdYSb-Y5CH-100" value="" style="endArrow=none;dashed=1;html=1;rounded=0;startArrow=open;startFill=0;startSize=12;entryX=0.361;entryY=1.043;entryDx=0;entryDy=0;entryPerimeter=0;fontSize=20;fontStyle=1;strokeWidth=2;" parent="1" source="1_gvQA9Mw1F-bFMWtdlo-17" target="F71kkK3N29jPOHGHF4Ug-22" edge="1">
          <mxGeometry width="50" height="50" relative="1" as="geometry">
            <mxPoint x="-8991.929999999998" y="4040" as="sourcePoint" />
            <mxPoint x="-8681.929999999998" y="3950" as="targetPoint" />
          </mxGeometry>
        </mxCell>
        <mxCell id="4M92p2UmULwdYSb-Y5CH-103" value="" style="endArrow=open;dashed=1;html=1;rounded=0;entryX=0.092;entryY=0.816;entryDx=0;entryDy=0;exitX=0.5;exitY=0;exitDx=0;exitDy=0;endFill=0;endSize=12;entryPerimeter=0;fontSize=20;fontStyle=1;strokeWidth=2;" parent="1" source="F71kkK3N29jPOHGHF4Ug-13" target="F71kkK3N29jPOHGHF4Ug-8" edge="1">
          <mxGeometry width="50" height="50" relative="1" as="geometry">
            <mxPoint x="-8820.619999999999" y="3410" as="sourcePoint" />
            <mxPoint x="-8770.619999999999" y="3360" as="targetPoint" />
          </mxGeometry>
        </mxCell>
        <mxCell id="4M92p2UmULwdYSb-Y5CH-104" value="" style="endArrow=open;dashed=1;html=1;rounded=0;entryX=0.5;entryY=1;entryDx=0;entryDy=0;endFill=0;endSize=12;exitX=0.42;exitY=-0.01;exitDx=0;exitDy=0;exitPerimeter=0;fontSize=20;fontStyle=1;strokeWidth=2;" parent="1" source="F71kkK3N29jPOHGHF4Ug-15" target="F71kkK3N29jPOHGHF4Ug-8" edge="1">
          <mxGeometry width="50" height="50" relative="1" as="geometry">
            <mxPoint x="-9005.619999999999" y="3530" as="sourcePoint" />
            <mxPoint x="-8755.619999999999" y="3375" as="targetPoint" />
            <Array as="points" />
          </mxGeometry>
        </mxCell>
        <mxCell id="4M92p2UmULwdYSb-Y5CH-105" value="" style="endArrow=open;dashed=1;html=1;rounded=0;entryX=1;entryY=1;entryDx=0;entryDy=0;endFill=0;endSize=12;fontSize=20;fontStyle=1;strokeWidth=2;" parent="1" source="F71kkK3N29jPOHGHF4Ug-11" target="F71kkK3N29jPOHGHF4Ug-8" edge="1">
          <mxGeometry width="50" height="50" relative="1" as="geometry">
            <mxPoint x="-8995.619999999999" y="3540" as="sourcePoint" />
            <mxPoint x="-8745.619999999999" y="3385" as="targetPoint" />
          </mxGeometry>
        </mxCell>
        <mxCell id="4M92p2UmULwdYSb-Y5CH-111" value="&lt;font style=&quot;font-size: 20px;&quot;&gt;&amp;lt;&amp;lt;include&amp;gt;&amp;gt;&lt;/font&gt;" style="text;html=1;align=center;verticalAlign=middle;resizable=0;points=[];autosize=1;strokeColor=none;fillColor=none;fontSize=20;fontStyle=1;strokeWidth=2;" parent="1" vertex="1">
          <mxGeometry x="-8470.23" y="3940" width="130" height="40" as="geometry" />
        </mxCell>
        <mxCell id="4M92p2UmULwdYSb-Y5CH-112" value="&lt;font style=&quot;font-size: 20px;&quot;&gt;&amp;lt;&amp;lt;include&amp;gt;&amp;gt;&lt;/font&gt;" style="text;html=1;align=center;verticalAlign=middle;resizable=0;points=[];autosize=1;strokeColor=none;fillColor=none;fontSize=20;fontStyle=1;strokeWidth=2;" parent="1" vertex="1">
          <mxGeometry x="-8604.31" y="3940" width="130" height="40" as="geometry" />
        </mxCell>
        <mxCell id="4M92p2UmULwdYSb-Y5CH-113" value="&lt;font style=&quot;font-size: 20px;&quot;&gt;&amp;lt;&amp;lt;include&amp;gt;&amp;gt;&lt;/font&gt;" style="text;html=1;align=center;verticalAlign=middle;resizable=0;points=[];autosize=1;strokeColor=none;fillColor=none;fontSize=20;fontStyle=1;strokeWidth=2;" parent="1" vertex="1">
          <mxGeometry x="-8738.659999999998" y="3930" width="130" height="40" as="geometry" />
        </mxCell>
        <mxCell id="4M92p2UmULwdYSb-Y5CH-114" value="&lt;font style=&quot;font-size: 20px;&quot;&gt;&amp;lt;&amp;lt;include&amp;gt;&amp;gt;&lt;/font&gt;" style="text;html=1;align=center;verticalAlign=middle;resizable=0;points=[];autosize=1;strokeColor=none;fillColor=none;fontSize=20;fontStyle=1;strokeWidth=2;" parent="1" vertex="1">
          <mxGeometry x="-8859.609999999999" y="3890" width="130" height="40" as="geometry" />
        </mxCell>
        <mxCell id="4M92p2UmULwdYSb-Y5CH-115" value="&lt;font style=&quot;font-size: 20px;&quot;&gt;&amp;lt;&amp;lt;include&amp;gt;&amp;gt;&lt;/font&gt;" style="text;html=1;align=center;verticalAlign=middle;resizable=0;points=[];autosize=1;strokeColor=none;fillColor=none;fontSize=20;fontStyle=1;strokeWidth=2;" parent="1" vertex="1">
          <mxGeometry x="-8428.07" y="5150" width="130" height="40" as="geometry" />
        </mxCell>
        <mxCell id="4M92p2UmULwdYSb-Y5CH-116" value="&lt;font style=&quot;font-size: 20px;&quot;&gt;&amp;lt;&amp;lt;extend&amp;gt;&amp;gt;&lt;/font&gt;" style="text;html=1;align=center;verticalAlign=middle;resizable=0;points=[];autosize=1;strokeColor=none;fillColor=none;fontSize=20;fontStyle=1;strokeWidth=2;" parent="1" vertex="1">
          <mxGeometry x="-8435.48" y="3410" width="130" height="40" as="geometry" />
        </mxCell>
        <mxCell id="4M92p2UmULwdYSb-Y5CH-118" value="&lt;font style=&quot;font-size: 20px;&quot;&gt;&amp;lt;&amp;lt;extend&amp;gt;&amp;gt;&lt;/font&gt;" style="text;html=1;align=center;verticalAlign=middle;resizable=0;points=[];autosize=1;strokeColor=none;fillColor=none;fontSize=20;fontStyle=1;strokeWidth=2;" parent="1" vertex="1">
          <mxGeometry x="-8609.23" y="3422" width="130" height="40" as="geometry" />
        </mxCell>
        <mxCell id="4M92p2UmULwdYSb-Y5CH-119" value="&lt;font style=&quot;font-size: 20px;&quot;&gt;&amp;lt;&amp;lt;extend&amp;gt;&amp;gt;&lt;/font&gt;" style="text;html=1;align=center;verticalAlign=middle;resizable=0;points=[];autosize=1;strokeColor=none;fillColor=none;fontSize=20;fontStyle=1;strokeWidth=2;" parent="1" vertex="1">
          <mxGeometry x="-8850.23" y="3390" width="130" height="40" as="geometry" />
        </mxCell>
        <mxCell id="4M92p2UmULwdYSb-Y5CH-120" value="&lt;font style=&quot;font-size: 20px;&quot;&gt;&amp;lt;&amp;lt;extend&amp;gt;&amp;gt;&lt;/font&gt;" style="text;html=1;align=center;verticalAlign=middle;resizable=0;points=[];autosize=1;strokeColor=none;fillColor=none;fontSize=20;fontStyle=1;strokeWidth=2;" parent="1" vertex="1">
          <mxGeometry x="-8505.26" y="4610" width="130" height="40" as="geometry" />
        </mxCell>
        <mxCell id="4M92p2UmULwdYSb-Y5CH-123" value="&lt;font style=&quot;font-size: 20px;&quot;&gt;&amp;lt;&amp;lt;extend&amp;gt;&amp;gt;&lt;/font&gt;" style="text;html=1;align=center;verticalAlign=middle;resizable=0;points=[];autosize=1;strokeColor=none;fillColor=none;fontSize=20;fontStyle=1;strokeWidth=2;" parent="1" vertex="1">
          <mxGeometry x="-8368.64" y="4770" width="130" height="40" as="geometry" />
        </mxCell>
        <mxCell id="4M92p2UmULwdYSb-Y5CH-124" value="&lt;font style=&quot;font-size: 20px;&quot;&gt;&amp;lt;&amp;lt;extend&amp;gt;&amp;gt;&lt;/font&gt;" style="text;html=1;align=center;verticalAlign=middle;resizable=0;points=[];autosize=1;strokeColor=none;fillColor=none;fontSize=20;fontStyle=1;strokeWidth=2;" parent="1" vertex="1">
          <mxGeometry x="-8358.880000000001" y="4840" width="130" height="40" as="geometry" />
        </mxCell>
        <mxCell id="4M92p2UmULwdYSb-Y5CH-125" value="&lt;font style=&quot;font-size: 20px;&quot;&gt;&amp;lt;&amp;lt;extend&amp;gt;&amp;gt;&lt;/font&gt;" style="text;html=1;align=center;verticalAlign=middle;resizable=0;points=[];autosize=1;strokeColor=none;fillColor=none;fontSize=20;fontStyle=1;strokeWidth=2;" parent="1" vertex="1">
          <mxGeometry x="-8382.91" y="4910" width="130" height="40" as="geometry" />
        </mxCell>
        <mxCell id="4M92p2UmULwdYSb-Y5CH-126" value="&lt;font style=&quot;font-size: 20px;&quot;&gt;&amp;lt;&amp;lt;extend&amp;gt;&amp;gt;&lt;/font&gt;" style="text;html=1;align=center;verticalAlign=middle;resizable=0;points=[];autosize=1;strokeColor=none;fillColor=none;fontSize=20;fontStyle=1;strokeWidth=2;" parent="1" vertex="1">
          <mxGeometry x="-8305.480000000001" y="4990" width="130" height="40" as="geometry" />
        </mxCell>
        <mxCell id="4M92p2UmULwdYSb-Y5CH-127" value="&lt;font style=&quot;font-size: 20px;&quot;&gt;&amp;lt;&amp;lt;extend&amp;gt;&amp;gt;&lt;/font&gt;" style="text;html=1;align=center;verticalAlign=middle;resizable=0;points=[];autosize=1;strokeColor=none;fillColor=none;fontSize=20;fontStyle=1;strokeWidth=2;" parent="1" vertex="1">
          <mxGeometry x="-8388.750000000002" y="4710" width="130" height="40" as="geometry" />
        </mxCell>
        <mxCell id="4M92p2UmULwdYSb-Y5CH-128" value="&lt;font style=&quot;font-size: 20px;&quot;&gt;&amp;lt;&amp;lt;extend&amp;gt;&amp;gt;&lt;/font&gt;" style="text;html=1;align=center;verticalAlign=middle;resizable=0;points=[];autosize=1;strokeColor=none;fillColor=none;fontSize=20;fontStyle=1;strokeWidth=2;" parent="1" vertex="1">
          <mxGeometry x="-8418.810000000001" y="5652.5" width="130" height="40" as="geometry" />
        </mxCell>
        <mxCell id="4M92p2UmULwdYSb-Y5CH-129" value="&lt;font style=&quot;font-size: 20px;&quot;&gt;&amp;lt;&amp;lt;extend&amp;gt;&amp;gt;&lt;/font&gt;" style="text;html=1;align=center;verticalAlign=middle;resizable=0;points=[];autosize=1;strokeColor=none;fillColor=none;fontSize=20;fontStyle=1;strokeWidth=2;" parent="1" vertex="1">
          <mxGeometry x="-8405.34" y="6680" width="130" height="40" as="geometry" />
        </mxCell>
        <mxCell id="4M92p2UmULwdYSb-Y5CH-130" value="&lt;font style=&quot;font-size: 20px;&quot;&gt;&amp;lt;&amp;lt;extend&amp;gt;&amp;gt;&lt;/font&gt;" style="text;html=1;align=center;verticalAlign=middle;resizable=0;points=[];autosize=1;strokeColor=none;fillColor=none;fontSize=20;fontStyle=1;strokeWidth=2;" parent="1" vertex="1">
          <mxGeometry x="-8401.91" y="5702.5" width="130" height="40" as="geometry" />
        </mxCell>
        <mxCell id="4M92p2UmULwdYSb-Y5CH-131" value="&lt;font style=&quot;font-size: 20px;&quot;&gt;&amp;lt;&amp;lt;extend&amp;gt;&amp;gt;&lt;/font&gt;" style="text;html=1;align=center;verticalAlign=middle;resizable=0;points=[];autosize=1;strokeColor=none;fillColor=none;fontSize=20;fontStyle=1;strokeWidth=2;" parent="1" vertex="1">
          <mxGeometry x="-8372.68" y="6550" width="130" height="40" as="geometry" />
        </mxCell>
        <mxCell id="4M92p2UmULwdYSb-Y5CH-133" value="&lt;font style=&quot;font-size: 20px;&quot;&gt;&amp;lt;&amp;lt;extend&amp;gt;&amp;gt;&lt;/font&gt;" style="text;html=1;align=center;verticalAlign=middle;resizable=0;points=[];autosize=1;strokeColor=none;fillColor=none;fontSize=20;fontStyle=1;strokeWidth=2;" parent="1" vertex="1">
          <mxGeometry x="-8368.64" y="6345" width="130" height="40" as="geometry" />
        </mxCell>
        <mxCell id="4M92p2UmULwdYSb-Y5CH-134" value="&lt;font style=&quot;font-size: 20px;&quot;&gt;&amp;lt;&amp;lt;extend&amp;gt;&amp;gt;&lt;/font&gt;" style="text;html=1;align=center;verticalAlign=middle;resizable=0;points=[];autosize=1;strokeColor=none;fillColor=none;fontSize=20;fontStyle=1;strokeWidth=2;" parent="1" vertex="1">
          <mxGeometry x="-8326.61" y="6287.5" width="130" height="40" as="geometry" />
        </mxCell>
        <mxCell id="4M92p2UmULwdYSb-Y5CH-135" value="&lt;font style=&quot;font-size: 20px;&quot;&gt;&amp;lt;&amp;lt;extend&amp;gt;&amp;gt;&lt;/font&gt;" style="text;html=1;align=center;verticalAlign=middle;resizable=0;points=[];autosize=1;strokeColor=none;fillColor=none;fontSize=20;fontStyle=1;strokeWidth=2;" parent="1" vertex="1">
          <mxGeometry x="-8390.51" y="6110" width="130" height="40" as="geometry" />
        </mxCell>
        <mxCell id="4M92p2UmULwdYSb-Y5CH-136" value="&lt;font style=&quot;font-size: 20px;&quot;&gt;&amp;lt;&amp;lt;extend&amp;gt;&amp;gt;&lt;/font&gt;" style="text;html=1;align=center;verticalAlign=middle;resizable=0;points=[];autosize=1;strokeColor=none;fillColor=none;fontSize=20;fontStyle=1;strokeWidth=2;" parent="1" vertex="1">
          <mxGeometry x="-8405.34" y="6060" width="130" height="40" as="geometry" />
        </mxCell>
        <mxCell id="4M92p2UmULwdYSb-Y5CH-137" value="&lt;font style=&quot;font-size: 20px;&quot;&gt;&amp;lt;&amp;lt;extend&amp;gt;&amp;gt;&lt;/font&gt;" style="text;html=1;align=center;verticalAlign=middle;resizable=0;points=[];autosize=1;strokeColor=none;fillColor=none;fontSize=20;fontStyle=1;strokeWidth=2;" parent="1" vertex="1">
          <mxGeometry x="-8345.140000000001" y="5915" width="130" height="40" as="geometry" />
        </mxCell>
        <mxCell id="4M92p2UmULwdYSb-Y5CH-138" value="&lt;font style=&quot;font-size: 20px;&quot;&gt;&amp;lt;&amp;lt;extend&amp;gt;&amp;gt;&lt;/font&gt;" style="text;html=1;align=center;verticalAlign=middle;resizable=0;points=[];autosize=1;strokeColor=none;fillColor=none;fontSize=20;fontStyle=1;strokeWidth=2;" parent="1" vertex="1">
          <mxGeometry x="-8394.26" y="5857.5" width="130" height="40" as="geometry" />
        </mxCell>
        <mxCell id="4M92p2UmULwdYSb-Y5CH-145" value="&lt;font style=&quot;font-size: 20px;&quot;&gt;&amp;lt;&amp;lt;extend&amp;gt;&amp;gt;&lt;/font&gt;" style="text;html=1;align=center;verticalAlign=middle;resizable=0;points=[];autosize=1;strokeColor=none;fillColor=none;fontSize=20;fontStyle=1;strokeWidth=2;" parent="1" vertex="1">
          <mxGeometry x="-8402.280000000002" y="7357.5" width="130" height="40" as="geometry" />
        </mxCell>
        <mxCell id="4M92p2UmULwdYSb-Y5CH-146" value="&lt;font style=&quot;font-size: 20px;&quot;&gt;&amp;lt;&amp;lt;extend&amp;gt;&amp;gt;&lt;/font&gt;" style="text;html=1;align=center;verticalAlign=middle;resizable=0;points=[];autosize=1;strokeColor=none;fillColor=none;fontSize=20;fontStyle=1;strokeWidth=2;" parent="1" vertex="1">
          <mxGeometry x="-8352.66" y="7170" width="130" height="40" as="geometry" />
        </mxCell>
        <mxCell id="4M92p2UmULwdYSb-Y5CH-147" value="&lt;font style=&quot;font-size: 20px;&quot;&gt;&amp;lt;&amp;lt;extend&amp;gt;&amp;gt;&lt;/font&gt;" style="text;html=1;align=center;verticalAlign=middle;resizable=0;points=[];autosize=1;strokeColor=none;fillColor=none;fontSize=20;fontStyle=1;strokeWidth=2;" parent="1" vertex="1">
          <mxGeometry x="-8351.590000000002" y="7110" width="130" height="40" as="geometry" />
        </mxCell>
        <mxCell id="4M92p2UmULwdYSb-Y5CH-148" value="&lt;font style=&quot;font-size: 20px;&quot;&gt;&amp;lt;&amp;lt;extend&amp;gt;&amp;gt;&lt;/font&gt;" style="text;html=1;align=center;verticalAlign=middle;resizable=0;points=[];autosize=1;strokeColor=none;fillColor=none;fontSize=20;fontStyle=1;strokeWidth=2;" parent="1" vertex="1">
          <mxGeometry x="-8380.84" y="6960" width="130" height="40" as="geometry" />
        </mxCell>
        <mxCell id="4M92p2UmULwdYSb-Y5CH-149" value="&lt;font style=&quot;font-size: 20px;&quot;&gt;&amp;lt;&amp;lt;extend&amp;gt;&amp;gt;&lt;/font&gt;" style="text;html=1;align=center;verticalAlign=middle;resizable=0;points=[];autosize=1;strokeColor=none;fillColor=none;fontSize=20;fontStyle=1;strokeWidth=2;" parent="1" vertex="1">
          <mxGeometry x="-8405.34" y="6920" width="130" height="40" as="geometry" />
        </mxCell>
        <mxCell id="4M92p2UmULwdYSb-Y5CH-150" value="&lt;font style=&quot;font-size: 20px;&quot;&gt;&amp;lt;&amp;lt;extend&amp;gt;&amp;gt;&lt;/font&gt;" style="text;html=1;align=center;verticalAlign=middle;resizable=0;points=[];autosize=1;strokeColor=none;fillColor=none;fontSize=20;fontStyle=1;strokeWidth=2;" parent="1" vertex="1">
          <mxGeometry x="-8400.320000000002" y="6740" width="130" height="40" as="geometry" />
        </mxCell>
        <mxCell id="4M92p2UmULwdYSb-Y5CH-151" value="&lt;font style=&quot;font-size: 20px;&quot;&gt;&amp;lt;&amp;lt;extend&amp;gt;&amp;gt;&lt;/font&gt;" style="text;html=1;align=center;verticalAlign=middle;resizable=0;points=[];autosize=1;strokeColor=none;fillColor=none;fontSize=20;fontStyle=1;strokeWidth=2;" parent="1" vertex="1">
          <mxGeometry x="-8355.400000000001" y="7800" width="130" height="40" as="geometry" />
        </mxCell>
        <mxCell id="4M92p2UmULwdYSb-Y5CH-152" value="&lt;font style=&quot;font-size: 20px;&quot;&gt;&amp;lt;&amp;lt;extend&amp;gt;&amp;gt;&lt;/font&gt;" style="text;html=1;align=center;verticalAlign=middle;resizable=0;points=[];autosize=1;strokeColor=none;fillColor=none;fontSize=20;fontStyle=1;strokeWidth=2;" parent="1" vertex="1">
          <mxGeometry x="-8380.840000000002" y="7752.5" width="130" height="40" as="geometry" />
        </mxCell>
        <mxCell id="4M92p2UmULwdYSb-Y5CH-153" value="&lt;font style=&quot;font-size: 20px;&quot;&gt;&amp;lt;&amp;lt;extend&amp;gt;&amp;gt;&lt;/font&gt;" style="text;html=1;align=center;verticalAlign=middle;resizable=0;points=[];autosize=1;strokeColor=none;fillColor=none;fontSize=20;fontStyle=1;strokeWidth=2;" parent="1" vertex="1">
          <mxGeometry x="-8375.260000000002" y="7600" width="130" height="40" as="geometry" />
        </mxCell>
        <mxCell id="4M92p2UmULwdYSb-Y5CH-154" value="&lt;font style=&quot;font-size: 20px;&quot;&gt;&amp;lt;&amp;lt;extend&amp;gt;&amp;gt;&lt;/font&gt;" style="text;html=1;align=center;verticalAlign=middle;resizable=0;points=[];autosize=1;strokeColor=none;fillColor=none;fontSize=20;fontStyle=1;strokeWidth=2;" parent="1" vertex="1">
          <mxGeometry x="-8390.510000000002" y="7550" width="130" height="40" as="geometry" />
        </mxCell>
        <mxCell id="4M92p2UmULwdYSb-Y5CH-157" value="&lt;font style=&quot;font-size: 20px;&quot;&gt;&amp;lt;&amp;lt;extend&amp;gt;&amp;gt;&lt;/font&gt;" style="text;html=1;align=center;verticalAlign=middle;resizable=0;points=[];autosize=1;strokeColor=none;fillColor=none;fontSize=20;fontStyle=1;strokeWidth=2;" parent="1" vertex="1">
          <mxGeometry x="-8364.990000000002" y="7410" width="130" height="40" as="geometry" />
        </mxCell>
        <mxCell id="4M92p2UmULwdYSb-Y5CH-158" value="&lt;font style=&quot;font-size: 20px;&quot;&gt;&amp;lt;&amp;lt;extend&amp;gt;&amp;gt;&lt;/font&gt;" style="text;html=1;align=center;verticalAlign=middle;resizable=0;points=[];autosize=1;strokeColor=none;fillColor=none;fontSize=20;fontStyle=1;strokeWidth=2;" parent="1" vertex="1">
          <mxGeometry x="-8364.990000000002" y="8370" width="130" height="40" as="geometry" />
        </mxCell>
        <mxCell id="4M92p2UmULwdYSb-Y5CH-159" value="&lt;font style=&quot;font-size: 20px;&quot;&gt;&amp;lt;&amp;lt;extend&amp;gt;&amp;gt;&lt;/font&gt;" style="text;html=1;align=center;verticalAlign=middle;resizable=0;points=[];autosize=1;strokeColor=none;fillColor=none;fontSize=20;fontStyle=1;strokeWidth=2;" parent="1" vertex="1">
          <mxGeometry x="-8351.59" y="8230" width="130" height="40" as="geometry" />
        </mxCell>
        <mxCell id="4M92p2UmULwdYSb-Y5CH-160" value="&lt;font style=&quot;font-size: 20px;&quot;&gt;&amp;lt;&amp;lt;extend&amp;gt;&amp;gt;&lt;/font&gt;" style="text;html=1;align=center;verticalAlign=middle;resizable=0;points=[];autosize=1;strokeColor=none;fillColor=none;fontSize=20;fontStyle=1;strokeWidth=2;" parent="1" vertex="1">
          <mxGeometry x="-8352.66" y="8170" width="130" height="40" as="geometry" />
        </mxCell>
        <mxCell id="4M92p2UmULwdYSb-Y5CH-161" value="&lt;font style=&quot;font-size: 20px;&quot;&gt;&amp;lt;&amp;lt;extend&amp;gt;&amp;gt;&lt;/font&gt;" style="text;html=1;align=center;verticalAlign=middle;resizable=0;points=[];autosize=1;strokeColor=none;fillColor=none;fontSize=20;fontStyle=1;strokeWidth=2;" parent="1" vertex="1">
          <mxGeometry x="-8340.23" y="8030" width="130" height="40" as="geometry" />
        </mxCell>
        <mxCell id="4M92p2UmULwdYSb-Y5CH-162" value="&lt;font style=&quot;font-size: 20px;&quot;&gt;&amp;lt;&amp;lt;extend&amp;gt;&amp;gt;&lt;/font&gt;" style="text;html=1;align=center;verticalAlign=middle;resizable=0;points=[];autosize=1;strokeColor=none;fillColor=none;fontSize=20;fontStyle=1;strokeWidth=2;" parent="1" vertex="1">
          <mxGeometry x="-8372.68" y="7970" width="130" height="40" as="geometry" />
        </mxCell>
        <mxCell id="4M92p2UmULwdYSb-Y5CH-164" value="&lt;font style=&quot;font-size: 20px;&quot;&gt;&amp;lt;&amp;lt;extend&amp;gt;&amp;gt;&lt;/font&gt;" style="text;html=1;align=center;verticalAlign=middle;resizable=0;points=[];autosize=1;strokeColor=none;fillColor=none;fontSize=20;fontStyle=1;strokeWidth=2;" parent="1" vertex="1">
          <mxGeometry x="-8359.68" y="8440" width="130" height="40" as="geometry" />
        </mxCell>
        <mxCell id="jH6HMsLTv-TuEZWvYWhm-1" value="&lt;font style=&quot;font-size: 20px;&quot;&gt;Mark Attendance&lt;/font&gt;" style="ellipse;whiteSpace=wrap;html=1;fontSize=20;fontStyle=1;strokeWidth=2;" parent="1" vertex="1">
          <mxGeometry x="-8845.11" y="850" width="369" height="80" as="geometry" />
        </mxCell>
        <mxCell id="jH6HMsLTv-TuEZWvYWhm-3" value="" style="endArrow=none;html=1;rounded=0;exitX=0;exitY=0.5;exitDx=0;exitDy=0;fontSize=20;fontStyle=1;strokeWidth=2;" parent="1" source="jH6HMsLTv-TuEZWvYWhm-1" edge="1">
          <mxGeometry width="50" height="50" relative="1" as="geometry">
            <mxPoint x="-8850.880000000001" y="650" as="sourcePoint" />
            <mxPoint x="-9410.880000000001" y="690" as="targetPoint" />
          </mxGeometry>
        </mxCell>
        <mxCell id="jH6HMsLTv-TuEZWvYWhm-4" value="&lt;font style=&quot;font-size: 20px;&quot;&gt;Arrange Training&lt;/font&gt;" style="ellipse;whiteSpace=wrap;html=1;fontSize=20;fontStyle=1;strokeWidth=2;" parent="1" vertex="1">
          <mxGeometry x="-8751.630000000001" y="3680" width="373" height="80" as="geometry" />
        </mxCell>
        <mxCell id="jH6HMsLTv-TuEZWvYWhm-10" value="" style="endArrow=open;html=1;rounded=0;entryX=0;entryY=0.5;entryDx=0;entryDy=0;exitX=0.983;exitY=0.368;exitDx=0;exitDy=0;exitPerimeter=0;endFill=0;startArrow=none;startFill=0;endSize=12;startSize=6;dashed=1;fontSize=20;fontStyle=1;strokeWidth=2;" parent="1" source="jH6HMsLTv-TuEZWvYWhm-1" target="jH6HMsLTv-TuEZWvYWhm-11" edge="1">
          <mxGeometry width="50" height="50" relative="1" as="geometry">
            <mxPoint x="-8486.11" y="880" as="sourcePoint" />
            <mxPoint x="-8436.11" y="830" as="targetPoint" />
          </mxGeometry>
        </mxCell>
        <mxCell id="jH6HMsLTv-TuEZWvYWhm-11" value="&lt;font style=&quot;font-size: 20px;&quot;&gt;Mark CheckIN Time&lt;/font&gt;" style="ellipse;whiteSpace=wrap;html=1;fontSize=20;fontStyle=1;strokeWidth=2;" parent="1" vertex="1">
          <mxGeometry x="-8360.04" y="840" width="214" height="80" as="geometry" />
        </mxCell>
        <mxCell id="jH6HMsLTv-TuEZWvYWhm-12" value="&lt;font style=&quot;font-size: 20px;&quot;&gt;Mark CheckOutTime&lt;/font&gt;" style="ellipse;whiteSpace=wrap;html=1;fontSize=20;fontStyle=1;strokeWidth=2;" parent="1" vertex="1">
          <mxGeometry x="-8366.11" y="930" width="209" height="80" as="geometry" />
        </mxCell>
        <mxCell id="jH6HMsLTv-TuEZWvYWhm-13" value="" style="endArrow=open;html=1;rounded=0;exitX=0.992;exitY=0.572;exitDx=0;exitDy=0;exitPerimeter=0;startArrow=none;startFill=0;startSize=6;dashed=1;endFill=0;endSize=12;entryX=0;entryY=0.5;entryDx=0;entryDy=0;fontSize=20;fontStyle=1;strokeWidth=2;" parent="1" source="jH6HMsLTv-TuEZWvYWhm-1" target="jH6HMsLTv-TuEZWvYWhm-12" edge="1">
          <mxGeometry width="50" height="50" relative="1" as="geometry">
            <mxPoint x="-8336.11" y="960" as="sourcePoint" />
            <mxPoint x="-8286.11" y="910" as="targetPoint" />
          </mxGeometry>
        </mxCell>
        <mxCell id="jH6HMsLTv-TuEZWvYWhm-14" value="&lt;font style=&quot;font-size: 20px;&quot;&gt;Check Leave Balance&lt;/font&gt;" style="ellipse;whiteSpace=wrap;html=1;fontSize=20;fontStyle=1;strokeWidth=2;" parent="1" vertex="1">
          <mxGeometry x="-8850.23" y="470" width="371" height="80" as="geometry" />
        </mxCell>
        <mxCell id="jH6HMsLTv-TuEZWvYWhm-15" value="" style="endArrow=none;html=1;rounded=0;entryX=0;entryY=0.5;entryDx=0;entryDy=0;fontSize=20;fontStyle=1;strokeWidth=2;" parent="1" target="jH6HMsLTv-TuEZWvYWhm-14" edge="1">
          <mxGeometry width="50" height="50" relative="1" as="geometry">
            <mxPoint x="-9410.880000000001" y="690" as="sourcePoint" />
            <mxPoint x="-8850.880000000001" y="460" as="targetPoint" />
          </mxGeometry>
        </mxCell>
        <mxCell id="jH6HMsLTv-TuEZWvYWhm-16" value="&amp;lt;&amp;lt;include&amp;gt;&amp;gt;" style="text;html=1;align=center;verticalAlign=middle;resizable=0;points=[];autosize=1;strokeColor=none;fillColor=none;fontSize=20;fontStyle=1;strokeWidth=2;" parent="1" vertex="1">
          <mxGeometry x="-8485.400000000001" y="840" width="130" height="40" as="geometry" />
        </mxCell>
        <mxCell id="jH6HMsLTv-TuEZWvYWhm-17" value="&amp;lt;&amp;lt;include&amp;gt;&amp;gt;" style="text;html=1;align=center;verticalAlign=middle;resizable=0;points=[];autosize=1;strokeColor=none;fillColor=none;fontSize=20;fontStyle=1;strokeWidth=2;" parent="1" vertex="1">
          <mxGeometry x="-8511.86" y="920" width="130" height="40" as="geometry" />
        </mxCell>
        <mxCell id="jH6HMsLTv-TuEZWvYWhm-18" value="&lt;span style=&quot;font-size: 20px;&quot;&gt;Promote Employee&lt;/span&gt;" style="ellipse;whiteSpace=wrap;html=1;fontSize=20;fontStyle=1;strokeWidth=2;" parent="1" vertex="1">
          <mxGeometry x="-8080" y="9040" width="333" height="60" as="geometry" />
        </mxCell>
        <mxCell id="jH6HMsLTv-TuEZWvYWhm-20" value="&lt;font style=&quot;font-size: 20px;&quot;&gt;View Employee KPI Report&lt;/font&gt;" style="ellipse;whiteSpace=wrap;html=1;fontSize=20;fontStyle=1;strokeWidth=2;" parent="1" vertex="1">
          <mxGeometry x="-8070" y="8880" width="331.75" height="60" as="geometry" />
        </mxCell>
        <mxCell id="jH6HMsLTv-TuEZWvYWhm-23" value="" style="endArrow=open;dashed=1;html=1;rounded=0;exitX=0.44;exitY=0.994;exitDx=0;exitDy=0;exitPerimeter=0;endFill=0;endSize=11;entryX=0.5;entryY=0;entryDx=0;entryDy=0;fontSize=20;fontStyle=1;strokeWidth=2;" parent="1" source="Kiu_sgeR9yTWTMrZRUj6-46" target="jH6HMsLTv-TuEZWvYWhm-20" edge="1">
          <mxGeometry width="50" height="50" relative="1" as="geometry">
            <mxPoint x="-8429.65" y="8860" as="sourcePoint" />
            <mxPoint x="-8379.65" y="8810" as="targetPoint" />
          </mxGeometry>
        </mxCell>
        <mxCell id="jH6HMsLTv-TuEZWvYWhm-25" value="&amp;lt;&amp;lt;include&amp;gt;&amp;gt;" style="text;html=1;align=center;verticalAlign=middle;resizable=0;points=[];autosize=1;strokeColor=none;fillColor=none;fontSize=20;fontStyle=1;strokeWidth=2;" parent="1" vertex="1">
          <mxGeometry x="-8017.58" y="8975" width="130" height="40" as="geometry" />
        </mxCell>
        <mxCell id="jH6HMsLTv-TuEZWvYWhm-26" value="&lt;font style=&quot;font-size: 20px;&quot;&gt;Approve EPF/ETF&lt;/font&gt;" style="ellipse;whiteSpace=wrap;html=1;fontSize=20;fontStyle=1;strokeWidth=2;" parent="1" vertex="1">
          <mxGeometry x="-8776.869999999999" y="3000" width="374.96" height="80" as="geometry" />
        </mxCell>
        <mxCell id="jH6HMsLTv-TuEZWvYWhm-30" value="" style="endArrow=none;html=1;rounded=0;exitX=0;exitY=0.5;exitDx=0;exitDy=0;fontSize=20;fontStyle=1;strokeWidth=2;" parent="1" source="jH6HMsLTv-TuEZWvYWhm-26" edge="1">
          <mxGeometry width="50" height="50" relative="1" as="geometry">
            <mxPoint x="-9482.25" y="2770" as="sourcePoint" />
            <mxPoint x="-9432.25" y="2720" as="targetPoint" />
          </mxGeometry>
        </mxCell>
        <mxCell id="jH6HMsLTv-TuEZWvYWhm-33" value="" style="endArrow=none;dashed=1;html=1;rounded=0;entryX=0.01;entryY=0.594;entryDx=0;entryDy=0;entryPerimeter=0;startArrow=open;startFill=0;jumpSize=12;startSize=12;exitX=0.941;exitY=0.264;exitDx=0;exitDy=0;exitPerimeter=0;fontSize=20;fontStyle=1;strokeWidth=2;" parent="1" source="F71kkK3N29jPOHGHF4Ug-40" target="jH6HMsLTv-TuEZWvYWhm-37" edge="1">
          <mxGeometry width="50" height="50" relative="1" as="geometry">
            <mxPoint x="-8487.58" y="680" as="sourcePoint" />
            <mxPoint x="-8227.58" y="390" as="targetPoint" />
          </mxGeometry>
        </mxCell>
        <mxCell id="jH6HMsLTv-TuEZWvYWhm-34" value="&lt;font style=&quot;font-size: 20px;&quot;&gt;Apply Sick Leave&lt;/font&gt;" style="ellipse;whiteSpace=wrap;html=1;fontSize=20;fontStyle=1;strokeWidth=2;" parent="1" vertex="1">
          <mxGeometry x="-8110" y="690" width="143.81" height="70" as="geometry" />
        </mxCell>
        <mxCell id="jH6HMsLTv-TuEZWvYWhm-35" value="" style="endArrow=open;dashed=1;html=1;rounded=0;endFill=0;startArrow=none;startFill=0;endSize=12;startSize=12;exitX=0;exitY=0.5;exitDx=0;exitDy=0;entryX=0.984;entryY=0.626;entryDx=0;entryDy=0;entryPerimeter=0;fontSize=20;fontStyle=1;strokeWidth=2;" parent="1" source="jH6HMsLTv-TuEZWvYWhm-34" target="F71kkK3N29jPOHGHF4Ug-40" edge="1">
          <mxGeometry width="50" height="50" relative="1" as="geometry">
            <mxPoint x="-8167.58" y="710" as="sourcePoint" />
            <mxPoint x="-8487.58" y="710" as="targetPoint" />
          </mxGeometry>
        </mxCell>
        <mxCell id="jH6HMsLTv-TuEZWvYWhm-36" value="&amp;lt;&amp;lt;extend&amp;gt;&amp;gt;" style="text;html=1;align=center;verticalAlign=middle;resizable=0;points=[];autosize=1;strokeColor=none;fillColor=none;fontSize=20;fontStyle=1;strokeWidth=2;" parent="1" vertex="1">
          <mxGeometry x="-8300.48" y="680" width="130" height="40" as="geometry" />
        </mxCell>
        <mxCell id="jH6HMsLTv-TuEZWvYWhm-37" value="&lt;font style=&quot;font-size: 20px;&quot;&gt;Apply maternity leave&lt;/font&gt;" style="ellipse;whiteSpace=wrap;html=1;fontSize=20;fontStyle=1;strokeWidth=2;" parent="1" vertex="1">
          <mxGeometry x="-8127.120000000001" y="310" width="189" height="80" as="geometry" />
        </mxCell>
        <mxCell id="jH6HMsLTv-TuEZWvYWhm-38" value="&amp;lt;&amp;lt;extend&amp;gt;&amp;gt;" style="text;html=1;align=center;verticalAlign=middle;resizable=0;points=[];autosize=1;strokeColor=none;fillColor=none;fontSize=20;fontStyle=1;strokeWidth=2;" parent="1" vertex="1">
          <mxGeometry x="-8407.3" y="480" width="130" height="40" as="geometry" />
        </mxCell>
        <mxCell id="jH6HMsLTv-TuEZWvYWhm-40" value="" style="endArrow=open;dashed=1;html=1;rounded=0;entryX=0.5;entryY=1;entryDx=0;entryDy=0;endFill=0;endSize=12;exitX=0.383;exitY=0.014;exitDx=0;exitDy=0;exitPerimeter=0;fontSize=20;fontStyle=1;strokeWidth=2;" parent="1" source="jH6HMsLTv-TuEZWvYWhm-18" target="jH6HMsLTv-TuEZWvYWhm-20" edge="1">
          <mxGeometry width="50" height="50" relative="1" as="geometry">
            <mxPoint x="-8489.65" y="8960" as="sourcePoint" />
            <mxPoint x="-8439.65" y="8910" as="targetPoint" />
          </mxGeometry>
        </mxCell>
        <mxCell id="jH6HMsLTv-TuEZWvYWhm-41" value="&amp;lt;&amp;lt;include&amp;gt;&amp;gt;" style="text;html=1;align=center;verticalAlign=middle;resizable=0;points=[];autosize=1;strokeColor=none;fillColor=none;fontSize=20;fontStyle=1;strokeWidth=2;" parent="1" vertex="1">
          <mxGeometry x="-8014.41" y="8825" width="130" height="40" as="geometry" />
        </mxCell>
        <mxCell id="a6QP6_cqLfgJYQvcDulg-3" value="" style="endArrow=none;html=1;rounded=0;entryX=0;entryY=0.5;entryDx=0;entryDy=0;fontSize=20;fontStyle=1;strokeWidth=2;" parent="1" target="F71kkK3N29jPOHGHF4Ug-2" edge="1">
          <mxGeometry width="50" height="50" relative="1" as="geometry">
            <mxPoint x="-9452.25" y="3450" as="sourcePoint" />
            <mxPoint x="-9402.25" y="3400" as="targetPoint" />
          </mxGeometry>
        </mxCell>
        <mxCell id="a6QP6_cqLfgJYQvcDulg-4" value="" style="endArrow=none;html=1;rounded=0;entryX=0;entryY=0.5;entryDx=0;entryDy=0;fontSize=20;fontStyle=1;strokeWidth=2;" parent="1" target="F71kkK3N29jPOHGHF4Ug-8" edge="1">
          <mxGeometry width="50" height="50" relative="1" as="geometry">
            <mxPoint x="-9452.25" y="3450" as="sourcePoint" />
            <mxPoint x="-8792.25" y="3240" as="targetPoint" />
          </mxGeometry>
        </mxCell>
        <mxCell id="a6QP6_cqLfgJYQvcDulg-5" value="" style="endArrow=none;html=1;rounded=0;entryX=0;entryY=0.5;entryDx=0;entryDy=0;fontSize=20;fontStyle=1;strokeWidth=2;" parent="1" target="F71kkK3N29jPOHGHF4Ug-24" edge="1">
          <mxGeometry width="50" height="50" relative="1" as="geometry">
            <mxPoint x="-9452.25" y="3450" as="sourcePoint" />
            <mxPoint x="-8792.25" y="3430" as="targetPoint" />
          </mxGeometry>
        </mxCell>
        <mxCell id="a6QP6_cqLfgJYQvcDulg-8" value="" style="endArrow=none;html=1;rounded=0;exitX=0;exitY=0.5;exitDx=0;exitDy=0;fontSize=20;fontStyle=1;strokeWidth=2;" parent="1" source="jH6HMsLTv-TuEZWvYWhm-4" edge="1">
          <mxGeometry width="50" height="50" relative="1" as="geometry">
            <mxPoint x="-9282.25" y="3540" as="sourcePoint" />
            <mxPoint x="-9452.25" y="3450" as="targetPoint" />
          </mxGeometry>
        </mxCell>
        <mxCell id="a6QP6_cqLfgJYQvcDulg-9" value="" style="endArrow=none;html=1;rounded=0;exitX=0.042;exitY=0.343;exitDx=0;exitDy=0;exitPerimeter=0;fontSize=20;fontStyle=1;strokeWidth=2;" parent="1" source="F71kkK3N29jPOHGHF4Ug-22" edge="1">
          <mxGeometry width="50" height="50" relative="1" as="geometry">
            <mxPoint x="-9502.25" y="3500" as="sourcePoint" />
            <mxPoint x="-9452.25" y="3450" as="targetPoint" />
          </mxGeometry>
        </mxCell>
        <mxCell id="a6QP6_cqLfgJYQvcDulg-11" value="" style="endArrow=none;html=1;rounded=0;exitX=0;exitY=0.5;exitDx=0;exitDy=0;fontSize=20;fontStyle=1;strokeWidth=2;" parent="1" source="4M92p2UmULwdYSb-Y5CH-28" edge="1">
          <mxGeometry width="50" height="50" relative="1" as="geometry">
            <mxPoint x="-9502.25" y="3500" as="sourcePoint" />
            <mxPoint x="-9452.25" y="3450" as="targetPoint" />
          </mxGeometry>
        </mxCell>
        <mxCell id="a6QP6_cqLfgJYQvcDulg-13" value="" style="endArrow=none;html=1;rounded=0;entryX=0;entryY=0.5;entryDx=0;entryDy=0;fontSize=20;fontStyle=1;strokeWidth=2;" parent="1" target="2l9gxJVeN8rWtBlAJ6Zl-11" edge="1">
          <mxGeometry width="50" height="50" relative="1" as="geometry">
            <mxPoint x="-9622.25" y="5520" as="sourcePoint" />
            <mxPoint x="-9572.25" y="5450" as="targetPoint" />
          </mxGeometry>
        </mxCell>
        <mxCell id="a6QP6_cqLfgJYQvcDulg-14" value="" style="endArrow=none;html=1;rounded=0;entryX=0;entryY=0.5;entryDx=0;entryDy=0;fontSize=20;fontStyle=1;strokeWidth=2;" parent="1" target="Kiu_sgeR9yTWTMrZRUj6-66" edge="1">
          <mxGeometry width="50" height="50" relative="1" as="geometry">
            <mxPoint x="-9622.25" y="5520" as="sourcePoint" />
            <mxPoint x="-9572.25" y="5470" as="targetPoint" />
          </mxGeometry>
        </mxCell>
        <mxCell id="a6QP6_cqLfgJYQvcDulg-15" value="" style="endArrow=none;html=1;rounded=0;entryX=0;entryY=0.5;entryDx=0;entryDy=0;fontSize=20;fontStyle=1;strokeWidth=2;" parent="1" target="Kiu_sgeR9yTWTMrZRUj6-25" edge="1">
          <mxGeometry width="50" height="50" relative="1" as="geometry">
            <mxPoint x="-9622.25" y="5520" as="sourcePoint" />
            <mxPoint x="-9572.25" y="5470" as="targetPoint" />
          </mxGeometry>
        </mxCell>
        <mxCell id="a6QP6_cqLfgJYQvcDulg-16" value="" style="endArrow=none;html=1;rounded=0;entryX=0;entryY=0.5;entryDx=0;entryDy=0;fontSize=20;fontStyle=1;strokeWidth=2;" parent="1" target="Kiu_sgeR9yTWTMrZRUj6-27" edge="1">
          <mxGeometry width="50" height="50" relative="1" as="geometry">
            <mxPoint x="-9622.25" y="5520" as="sourcePoint" />
            <mxPoint x="-9572.25" y="5470" as="targetPoint" />
          </mxGeometry>
        </mxCell>
        <mxCell id="a6QP6_cqLfgJYQvcDulg-18" value="" style="endArrow=none;html=1;rounded=0;entryX=0;entryY=0.5;entryDx=0;entryDy=0;fontSize=20;fontStyle=1;strokeWidth=2;" parent="1" target="qywmRbYdawK2gE5V6afP-17" edge="1">
          <mxGeometry width="50" height="50" relative="1" as="geometry">
            <mxPoint x="-9622.25" y="5520" as="sourcePoint" />
            <mxPoint x="-9572.25" y="5470" as="targetPoint" />
          </mxGeometry>
        </mxCell>
        <mxCell id="a6QP6_cqLfgJYQvcDulg-19" value="" style="endArrow=none;html=1;rounded=0;entryX=0;entryY=0.5;entryDx=0;entryDy=0;fontSize=20;fontStyle=1;strokeWidth=2;" parent="1" target="Kiu_sgeR9yTWTMrZRUj6-30" edge="1">
          <mxGeometry width="50" height="50" relative="1" as="geometry">
            <mxPoint x="-9622.25" y="5520" as="sourcePoint" />
            <mxPoint x="-9572.25" y="5470" as="targetPoint" />
          </mxGeometry>
        </mxCell>
        <mxCell id="a6QP6_cqLfgJYQvcDulg-20" value="" style="endArrow=none;html=1;rounded=0;entryX=0;entryY=0.5;entryDx=0;entryDy=0;fontSize=20;fontStyle=1;strokeWidth=2;" parent="1" target="Kiu_sgeR9yTWTMrZRUj6-37" edge="1">
          <mxGeometry width="50" height="50" relative="1" as="geometry">
            <mxPoint x="-9622.25" y="5520" as="sourcePoint" />
            <mxPoint x="-9572.25" y="5470" as="targetPoint" />
          </mxGeometry>
        </mxCell>
        <mxCell id="a6QP6_cqLfgJYQvcDulg-22" value="" style="endArrow=none;html=1;rounded=0;entryX=0;entryY=0.5;entryDx=0;entryDy=0;fontSize=20;fontStyle=1;strokeWidth=2;" parent="1" target="1_gvQA9Mw1F-bFMWtdlo-4" edge="1">
          <mxGeometry width="50" height="50" relative="1" as="geometry">
            <mxPoint x="-9622.25" y="5520" as="sourcePoint" />
            <mxPoint x="-8842.25" y="6010" as="targetPoint" />
          </mxGeometry>
        </mxCell>
        <mxCell id="a6QP6_cqLfgJYQvcDulg-23" value="" style="endArrow=none;html=1;rounded=0;exitX=0;exitY=0.5;exitDx=0;exitDy=0;fontSize=20;fontStyle=1;strokeWidth=2;" parent="1" source="1_gvQA9Mw1F-bFMWtdlo-3" edge="1">
          <mxGeometry width="50" height="50" relative="1" as="geometry">
            <mxPoint x="-9862.25" y="6070" as="sourcePoint" />
            <mxPoint x="-9622.25" y="5520" as="targetPoint" />
          </mxGeometry>
        </mxCell>
        <mxCell id="a6QP6_cqLfgJYQvcDulg-24" value="" style="endArrow=none;html=1;rounded=0;exitX=0;exitY=0.5;exitDx=0;exitDy=0;fontSize=20;fontStyle=1;strokeWidth=2;" parent="1" source="l3vJUugmlYN3g6FOaKyB-6" edge="1">
          <mxGeometry width="50" height="50" relative="1" as="geometry">
            <mxPoint x="-9672.25" y="5570" as="sourcePoint" />
            <mxPoint x="-9622.25" y="5520" as="targetPoint" />
          </mxGeometry>
        </mxCell>
        <mxCell id="a6QP6_cqLfgJYQvcDulg-25" value="" style="endArrow=none;html=1;rounded=0;exitX=0;exitY=0.5;exitDx=0;exitDy=0;fontSize=20;fontStyle=1;strokeWidth=2;" parent="1" source="1_gvQA9Mw1F-bFMWtdlo-2" edge="1">
          <mxGeometry width="50" height="50" relative="1" as="geometry">
            <mxPoint x="-9662.25" y="5570" as="sourcePoint" />
            <mxPoint x="-9622.25" y="5520" as="targetPoint" />
          </mxGeometry>
        </mxCell>
        <mxCell id="a6QP6_cqLfgJYQvcDulg-26" value="" style="endArrow=none;html=1;rounded=0;exitX=0;exitY=0.5;exitDx=0;exitDy=0;fontSize=20;fontStyle=1;strokeWidth=2;" parent="1" source="1_gvQA9Mw1F-bFMWtdlo-21" edge="1">
          <mxGeometry width="50" height="50" relative="1" as="geometry">
            <mxPoint x="-9662.25" y="5570" as="sourcePoint" />
            <mxPoint x="-9622.25" y="5520" as="targetPoint" />
          </mxGeometry>
        </mxCell>
        <mxCell id="a6QP6_cqLfgJYQvcDulg-27" value="" style="endArrow=none;html=1;rounded=0;exitX=0;exitY=0.5;exitDx=0;exitDy=0;fontSize=20;fontStyle=1;strokeWidth=2;" parent="1" source="1_gvQA9Mw1F-bFMWtdlo-22" edge="1">
          <mxGeometry width="50" height="50" relative="1" as="geometry">
            <mxPoint x="-9672.25" y="5580" as="sourcePoint" />
            <mxPoint x="-9622.25" y="5520" as="targetPoint" />
          </mxGeometry>
        </mxCell>
        <mxCell id="a6QP6_cqLfgJYQvcDulg-28" value="" style="endArrow=none;html=1;rounded=0;exitX=0;exitY=0.5;exitDx=0;exitDy=0;fontSize=20;fontStyle=1;strokeWidth=2;" parent="1" source="1_gvQA9Mw1F-bFMWtdlo-30" edge="1">
          <mxGeometry width="50" height="50" relative="1" as="geometry">
            <mxPoint x="-9642.25" y="5580" as="sourcePoint" />
            <mxPoint x="-9622.25" y="5520" as="targetPoint" />
          </mxGeometry>
        </mxCell>
        <mxCell id="a6QP6_cqLfgJYQvcDulg-29" value="" style="endArrow=none;html=1;rounded=0;exitX=0;exitY=0.5;exitDx=0;exitDy=0;fontSize=20;fontStyle=1;strokeWidth=2;" parent="1" source="1_gvQA9Mw1F-bFMWtdlo-31" edge="1">
          <mxGeometry width="50" height="50" relative="1" as="geometry">
            <mxPoint x="-9242.25" y="6710.695906929348" as="sourcePoint" />
            <mxPoint x="-9622.25" y="5520" as="targetPoint" />
          </mxGeometry>
        </mxCell>
        <mxCell id="a6QP6_cqLfgJYQvcDulg-30" value="" style="endArrow=none;html=1;rounded=0;exitX=0;exitY=0.5;exitDx=0;exitDy=0;fontSize=20;fontStyle=1;strokeWidth=2;" parent="1" source="1_gvQA9Mw1F-bFMWtdlo-32" edge="1">
          <mxGeometry width="50" height="50" relative="1" as="geometry">
            <mxPoint x="-9692.25" y="6160" as="sourcePoint" />
            <mxPoint x="-9622.25" y="5520" as="targetPoint" />
          </mxGeometry>
        </mxCell>
        <mxCell id="a6QP6_cqLfgJYQvcDulg-31" value="" style="endArrow=none;html=1;rounded=0;exitX=0;exitY=0.5;exitDx=0;exitDy=0;fontSize=20;fontStyle=1;strokeWidth=2;" parent="1" source="1_gvQA9Mw1F-bFMWtdlo-33" edge="1">
          <mxGeometry width="50" height="50" relative="1" as="geometry">
            <mxPoint x="-9372.25" y="7221.454634232955" as="sourcePoint" />
            <mxPoint x="-9622.25" y="5520" as="targetPoint" />
          </mxGeometry>
        </mxCell>
        <mxCell id="a6QP6_cqLfgJYQvcDulg-32" value="" style="endArrow=none;html=1;rounded=0;exitX=0;exitY=0.5;exitDx=0;exitDy=0;fontSize=20;fontStyle=1;strokeWidth=2;" parent="1" source="1_gvQA9Mw1F-bFMWtdlo-34" edge="1">
          <mxGeometry width="50" height="50" relative="1" as="geometry">
            <mxPoint x="-9662.25" y="5580" as="sourcePoint" />
            <mxPoint x="-9622.25" y="5520" as="targetPoint" />
          </mxGeometry>
        </mxCell>
        <mxCell id="a6QP6_cqLfgJYQvcDulg-33" value="" style="endArrow=none;html=1;rounded=0;exitX=0;exitY=0.5;exitDx=0;exitDy=0;fontSize=20;fontStyle=1;strokeWidth=2;" parent="1" source="1_gvQA9Mw1F-bFMWtdlo-35" edge="1">
          <mxGeometry width="50" height="50" relative="1" as="geometry">
            <mxPoint x="-9652.25" y="5580" as="sourcePoint" />
            <mxPoint x="-9622.25" y="5520" as="targetPoint" />
          </mxGeometry>
        </mxCell>
        <mxCell id="a6QP6_cqLfgJYQvcDulg-34" value="" style="endArrow=none;html=1;rounded=0;exitX=0;exitY=0.5;exitDx=0;exitDy=0;fontSize=20;fontStyle=1;strokeWidth=2;" parent="1" source="4M92p2UmULwdYSb-Y5CH-25" edge="1">
          <mxGeometry width="50" height="50" relative="1" as="geometry">
            <mxPoint x="-9672.25" y="5600" as="sourcePoint" />
            <mxPoint x="-9622.25" y="5520" as="targetPoint" />
          </mxGeometry>
        </mxCell>
        <mxCell id="a6QP6_cqLfgJYQvcDulg-35" value="" style="endArrow=none;html=1;rounded=0;entryX=0;entryY=0.5;entryDx=0;entryDy=0;fontSize=20;fontStyle=1;strokeWidth=2;" parent="1" target="Kiu_sgeR9yTWTMrZRUj6-44" edge="1">
          <mxGeometry width="50" height="50" relative="1" as="geometry">
            <mxPoint x="-9720" y="8800" as="sourcePoint" />
            <mxPoint x="-9580.24" y="8750" as="targetPoint" />
          </mxGeometry>
        </mxCell>
        <mxCell id="a6QP6_cqLfgJYQvcDulg-36" value="" style="endArrow=none;html=1;rounded=0;entryX=0;entryY=0.5;entryDx=0;entryDy=0;fontSize=20;fontStyle=1;strokeWidth=2;" parent="1" target="jH6HMsLTv-TuEZWvYWhm-18" edge="1">
          <mxGeometry width="50" height="50" relative="1" as="geometry">
            <mxPoint x="-9720" y="8800" as="sourcePoint" />
            <mxPoint x="-9580.24" y="8750" as="targetPoint" />
          </mxGeometry>
        </mxCell>
        <mxCell id="a6QP6_cqLfgJYQvcDulg-37" value="" style="endArrow=none;html=1;rounded=0;entryX=0;entryY=0.5;entryDx=0;entryDy=0;fontSize=20;fontStyle=1;strokeWidth=2;" parent="1" target="Kiu_sgeR9yTWTMrZRUj6-46" edge="1">
          <mxGeometry width="50" height="50" relative="1" as="geometry">
            <mxPoint x="-9720" y="8800" as="sourcePoint" />
            <mxPoint x="-9580.24" y="8750" as="targetPoint" />
          </mxGeometry>
        </mxCell>
        <mxCell id="Jk9DOsShqTDxwiwTM6_0-2" value="Employee" style="shape=umlActor;verticalLabelPosition=bottom;verticalAlign=top;html=1;fontSize=20;fontStyle=1;strokeWidth=2;" parent="1" vertex="1">
          <mxGeometry x="-6790" y="5510" width="40" height="80" as="geometry" />
        </mxCell>
        <mxCell id="Jk9DOsShqTDxwiwTM6_0-4" value="" style="endArrow=none;html=1;rounded=0;fontSize=20;fontStyle=1;strokeWidth=2;" parent="1" edge="1">
          <mxGeometry width="50" height="50" relative="1" as="geometry">
            <mxPoint x="-6800" y="5550" as="sourcePoint" />
            <mxPoint x="-8482.25" y="4970" as="targetPoint" />
          </mxGeometry>
        </mxCell>
        <mxCell id="Jk9DOsShqTDxwiwTM6_0-6" value="" style="endArrow=none;html=1;rounded=0;exitX=1;exitY=0.5;exitDx=0;exitDy=0;fontSize=20;fontStyle=1;strokeWidth=2;" parent="1" source="Kiu_sgeR9yTWTMrZRUj6-27" edge="1">
          <mxGeometry width="50" height="50" relative="1" as="geometry">
            <mxPoint x="-8452.25" y="5310" as="sourcePoint" />
            <mxPoint x="-6800" y="5550" as="targetPoint" />
          </mxGeometry>
        </mxCell>
        <mxCell id="Jk9DOsShqTDxwiwTM6_0-7" value="" style="endArrow=none;html=1;rounded=0;exitX=1;exitY=0.5;exitDx=0;exitDy=0;fontSize=20;fontStyle=1;strokeWidth=2;" parent="1" source="qywmRbYdawK2gE5V6afP-17" edge="1">
          <mxGeometry width="50" height="50" relative="1" as="geometry">
            <mxPoint x="-8462.25" y="5430" as="sourcePoint" />
            <mxPoint x="-6800" y="5550" as="targetPoint" />
          </mxGeometry>
        </mxCell>
        <mxCell id="Jk9DOsShqTDxwiwTM6_0-8" value="" style="endArrow=none;html=1;rounded=0;exitX=1;exitY=0.5;exitDx=0;exitDy=0;fontSize=20;fontStyle=1;strokeWidth=2;" parent="1" source="Kiu_sgeR9yTWTMrZRUj6-30" edge="1">
          <mxGeometry width="50" height="50" relative="1" as="geometry">
            <mxPoint x="-8452.25" y="5550" as="sourcePoint" />
            <mxPoint x="-6800" y="5550" as="targetPoint" />
          </mxGeometry>
        </mxCell>
        <mxCell id="Jk9DOsShqTDxwiwTM6_0-9" value="" style="endArrow=none;html=1;rounded=0;exitX=1;exitY=0.5;exitDx=0;exitDy=0;fontSize=20;fontStyle=1;strokeWidth=2;" parent="1" source="Kiu_sgeR9yTWTMrZRUj6-44" edge="1">
          <mxGeometry width="50" height="50" relative="1" as="geometry">
            <mxPoint x="-7717" y="8796" as="sourcePoint" />
            <mxPoint x="-6800" y="5550" as="targetPoint" />
            <Array as="points" />
          </mxGeometry>
        </mxCell>
        <mxCell id="Jk9DOsShqTDxwiwTM6_0-10" value="" style="endArrow=none;html=1;rounded=0;exitX=1;exitY=0.5;exitDx=0;exitDy=0;fontSize=20;fontStyle=1;strokeWidth=2;" parent="1" source="jH6HMsLTv-TuEZWvYWhm-18" edge="1">
          <mxGeometry width="50" height="50" relative="1" as="geometry">
            <mxPoint x="-7560" y="9280" as="sourcePoint" />
            <mxPoint x="-6800" y="5550" as="targetPoint" />
            <Array as="points" />
          </mxGeometry>
        </mxCell>
        <mxCell id="Jk9DOsShqTDxwiwTM6_0-14" value="" style="endArrow=none;html=1;rounded=0;entryX=0.948;entryY=0.695;entryDx=0;entryDy=0;entryPerimeter=0;fontSize=20;fontStyle=1;strokeWidth=2;" parent="1" target="F71kkK3N29jPOHGHF4Ug-22" edge="1">
          <mxGeometry width="50" height="50" relative="1" as="geometry">
            <mxPoint x="-6800" y="5550" as="sourcePoint" />
            <mxPoint x="-8452.25" y="3810" as="targetPoint" />
            <Array as="points" />
          </mxGeometry>
        </mxCell>
        <mxCell id="Jk9DOsShqTDxwiwTM6_0-15" value="" style="endArrow=none;html=1;rounded=0;entryX=0.995;entryY=0.578;entryDx=0;entryDy=0;entryPerimeter=0;fontSize=20;fontStyle=1;strokeWidth=2;" parent="1" target="4M92p2UmULwdYSb-Y5CH-28" edge="1">
          <mxGeometry width="50" height="50" relative="1" as="geometry">
            <mxPoint x="-6800" y="5550" as="sourcePoint" />
            <mxPoint x="-8402.25" y="3930" as="targetPoint" />
            <Array as="points" />
          </mxGeometry>
        </mxCell>
        <mxCell id="Jk9DOsShqTDxwiwTM6_0-17" value="" style="endArrow=none;html=1;rounded=0;entryX=1;entryY=0.5;entryDx=0;entryDy=0;fontSize=20;fontStyle=1;strokeWidth=2;" parent="1" target="F71kkK3N29jPOHGHF4Ug-24" edge="1">
          <mxGeometry width="50" height="50" relative="1" as="geometry">
            <mxPoint x="-6800" y="5550" as="sourcePoint" />
            <mxPoint x="-8422.25" y="3430" as="targetPoint" />
            <Array as="points" />
          </mxGeometry>
        </mxCell>
        <mxCell id="Jk9DOsShqTDxwiwTM6_0-18" value="" style="endArrow=none;html=1;rounded=0;exitX=1;exitY=0.5;exitDx=0;exitDy=0;fontSize=20;fontStyle=1;strokeWidth=2;" parent="1" source="jH6HMsLTv-TuEZWvYWhm-4" edge="1">
          <mxGeometry width="50" height="50" relative="1" as="geometry">
            <mxPoint x="-7692.32" y="3700" as="sourcePoint" />
            <mxPoint x="-6800" y="5550" as="targetPoint" />
            <Array as="points" />
          </mxGeometry>
        </mxCell>
        <mxCell id="Jk9DOsShqTDxwiwTM6_0-19" value="" style="endArrow=none;html=1;rounded=0;exitX=1;exitY=0.5;exitDx=0;exitDy=0;fontSize=20;fontStyle=1;strokeWidth=2;" parent="1" source="F71kkK3N29jPOHGHF4Ug-2" edge="1">
          <mxGeometry width="50" height="50" relative="1" as="geometry">
            <mxPoint x="-8412.25" y="3110" as="sourcePoint" />
            <mxPoint x="-6800" y="5550" as="targetPoint" />
            <Array as="points" />
          </mxGeometry>
        </mxCell>
        <mxCell id="Jk9DOsShqTDxwiwTM6_0-20" value="" style="endArrow=none;html=1;rounded=0;entryX=1;entryY=0.5;entryDx=0;entryDy=0;fontSize=20;fontStyle=1;strokeWidth=2;" parent="1" target="jH6HMsLTv-TuEZWvYWhm-26" edge="1">
          <mxGeometry width="50" height="50" relative="1" as="geometry">
            <mxPoint x="-6800" y="5550" as="sourcePoint" />
            <mxPoint x="-8411.82" y="2070" as="targetPoint" />
            <Array as="points" />
          </mxGeometry>
        </mxCell>
        <mxCell id="Jk9DOsShqTDxwiwTM6_0-21" value="HR" style="shape=umlActor;verticalLabelPosition=bottom;verticalAlign=top;html=1;fontSize=20;fontStyle=1;strokeWidth=2;" parent="1" vertex="1">
          <mxGeometry x="-6812.66" y="2640" width="39" height="70" as="geometry" />
        </mxCell>
        <mxCell id="Jk9DOsShqTDxwiwTM6_0-22" value="" style="endArrow=none;html=1;rounded=0;exitX=1;exitY=0.5;exitDx=0;exitDy=0;fontSize=20;fontStyle=1;strokeWidth=2;" parent="1" source="1_gvQA9Mw1F-bFMWtdlo-46" edge="1">
          <mxGeometry width="50" height="50" relative="1" as="geometry">
            <mxPoint x="-8435.91" y="2750" as="sourcePoint" />
            <mxPoint x="-6833.66" y="2680" as="targetPoint" />
          </mxGeometry>
        </mxCell>
        <mxCell id="Jk9DOsShqTDxwiwTM6_0-23" value="" style="endArrow=none;html=1;rounded=0;fontSize=20;fontStyle=1;strokeWidth=2;" parent="1" edge="1">
          <mxGeometry width="50" height="50" relative="1" as="geometry">
            <mxPoint x="-8434.91" y="2930" as="sourcePoint" />
            <mxPoint x="-6833.66" y="2680" as="targetPoint" />
          </mxGeometry>
        </mxCell>
        <mxCell id="Jk9DOsShqTDxwiwTM6_0-26" value="" style="endArrow=none;html=1;rounded=0;fontSize=20;fontStyle=1;strokeWidth=2;" parent="1" edge="1">
          <mxGeometry width="50" height="50" relative="1" as="geometry">
            <mxPoint x="-8435.91" y="2700" as="sourcePoint" />
            <mxPoint x="-6833.66" y="2680" as="targetPoint" />
          </mxGeometry>
        </mxCell>
        <mxCell id="Jk9DOsShqTDxwiwTM6_0-27" value="" style="endArrow=none;html=1;rounded=0;fontSize=20;fontStyle=1;strokeWidth=2;" parent="1" edge="1">
          <mxGeometry width="50" height="50" relative="1" as="geometry">
            <mxPoint x="-8435.91" y="2600" as="sourcePoint" />
            <mxPoint x="-6833.66" y="2680" as="targetPoint" />
          </mxGeometry>
        </mxCell>
        <mxCell id="Jk9DOsShqTDxwiwTM6_0-28" value="" style="endArrow=none;html=1;rounded=0;exitX=1;exitY=0;exitDx=0;exitDy=0;fontSize=20;fontStyle=1;strokeWidth=2;" parent="1" source="Kiu_sgeR9yTWTMrZRUj6-40" edge="1">
          <mxGeometry width="50" height="50" relative="1" as="geometry">
            <mxPoint x="-8491.82" y="1320" as="sourcePoint" />
            <mxPoint x="-6840" y="980" as="targetPoint" />
          </mxGeometry>
        </mxCell>
        <mxCell id="Jk9DOsShqTDxwiwTM6_0-29" value="" style="endArrow=none;html=1;rounded=0;exitX=1;exitY=0.5;exitDx=0;exitDy=0;fontSize=20;fontStyle=1;strokeWidth=2;" parent="1" source="F71kkK3N29jPOHGHF4Ug-41" edge="1">
          <mxGeometry width="50" height="50" relative="1" as="geometry">
            <mxPoint x="-8471.82" y="1150" as="sourcePoint" />
            <mxPoint x="-6840" y="980" as="targetPoint" />
          </mxGeometry>
        </mxCell>
        <mxCell id="Jk9DOsShqTDxwiwTM6_0-30" value="Manager" style="shape=umlActor;verticalLabelPosition=bottom;verticalAlign=top;html=1;fontSize=20;fontStyle=1;strokeWidth=2;" parent="1" vertex="1">
          <mxGeometry x="-6820.000000000001" y="920" width="50" height="90" as="geometry" />
        </mxCell>
        <mxCell id="Jk9DOsShqTDxwiwTM6_0-31" value="" style="endArrow=none;html=1;rounded=0;entryX=0.948;entryY=0.724;entryDx=0;entryDy=0;entryPerimeter=0;fontSize=20;fontStyle=1;strokeWidth=2;" parent="1" target="F71kkK3N29jPOHGHF4Ug-40" edge="1">
          <mxGeometry width="50" height="50" relative="1" as="geometry">
            <mxPoint x="-6840" y="980" as="sourcePoint" />
            <mxPoint x="-8491.82" y="720" as="targetPoint" />
          </mxGeometry>
        </mxCell>
        <mxCell id="6ge89AeeD24hBtErU2NP-1" style="edgeStyle=orthogonalEdgeStyle;rounded=0;orthogonalLoop=1;jettySize=auto;html=1;exitX=0.5;exitY=1;exitDx=0;exitDy=0;fontSize=20;fontStyle=1;strokeWidth=2;" parent="1" source="qywmRbYdawK2gE5V6afP-5" target="qywmRbYdawK2gE5V6afP-5" edge="1">
          <mxGeometry relative="1" as="geometry" />
        </mxCell>
        <mxCell id="0v7A2nk2v4uY6-TrSgLa-4" value="&lt;font style=&quot;font-size: 20px;&quot;&gt;Rate Performance&lt;/font&gt;" style="ellipse;whiteSpace=wrap;html=1;fontSize=20;fontStyle=1;strokeWidth=2;" parent="1" vertex="1">
          <mxGeometry x="-8815" y="5550" width="365" height="80" as="geometry" />
        </mxCell>
        <mxCell id="0v7A2nk2v4uY6-TrSgLa-5" value="" style="endArrow=none;html=1;rounded=0;entryX=0;entryY=0.5;entryDx=0;entryDy=0;fontSize=20;fontStyle=1;strokeWidth=2;" parent="1" target="0v7A2nk2v4uY6-TrSgLa-4" edge="1">
          <mxGeometry width="50" height="50" relative="1" as="geometry">
            <mxPoint x="-9620" y="5520" as="sourcePoint" />
            <mxPoint x="-9570" y="5470" as="targetPoint" />
          </mxGeometry>
        </mxCell>
        <mxCell id="0v7A2nk2v4uY6-TrSgLa-6" value="" style="endArrow=none;html=1;rounded=0;fontSize=20;fontStyle=1;strokeWidth=2;" parent="1" edge="1">
          <mxGeometry width="50" height="50" relative="1" as="geometry">
            <mxPoint x="-8450" y="5590" as="sourcePoint" />
            <mxPoint x="-6806.000061035156" y="5550" as="targetPoint" />
          </mxGeometry>
        </mxCell>
        <mxCell id="0v7A2nk2v4uY6-TrSgLa-12" value="" style="endArrow=none;html=1;rounded=0;exitX=0.923;exitY=0.226;exitDx=0;exitDy=0;exitPerimeter=0;fontSize=20;fontStyle=1;strokeWidth=2;" parent="1" source="Kiu_sgeR9yTWTMrZRUj6-65" edge="1">
          <mxGeometry width="50" height="50" relative="1" as="geometry">
            <mxPoint x="-8450" y="2270" as="sourcePoint" />
            <mxPoint x="-6840" y="980" as="targetPoint" />
          </mxGeometry>
        </mxCell>
        <mxCell id="0v7A2nk2v4uY6-TrSgLa-13" value="" style="rounded=0;whiteSpace=wrap;html=1;fillColor=none;fontSize=20;fontStyle=1;strokeWidth=2;" parent="1" vertex="1">
          <mxGeometry x="-9310" y="80" width="2250" height="9130" as="geometry" />
        </mxCell>
        <mxCell id="g_NdxfJMD1_x0BwGpeqk-1" style="edgeStyle=orthogonalEdgeStyle;rounded=0;orthogonalLoop=1;jettySize=auto;html=1;exitX=0.5;exitY=1;exitDx=0;exitDy=0;fontSize=20;fontStyle=1;strokeWidth=2;" parent="1" source="0v7A2nk2v4uY6-TrSgLa-13" target="0v7A2nk2v4uY6-TrSgLa-13" edge="1">
          <mxGeometry relative="1" as="geometry" />
        </mxCell>
        <mxCell id="g_NdxfJMD1_x0BwGpeqk-9" style="edgeStyle=orthogonalEdgeStyle;rounded=0;orthogonalLoop=1;jettySize=auto;html=1;exitX=0.5;exitY=1;exitDx=0;exitDy=0;fontSize=20;fontStyle=1;strokeWidth=2;" parent="1" edge="1">
          <mxGeometry relative="1" as="geometry">
            <mxPoint x="-8204.48" y="7115" as="sourcePoint" />
            <mxPoint x="-8204.48" y="7115" as="targetPoint" />
          </mxGeometry>
        </mxCell>
        <mxCell id="841YpcAVTE6Q28CKTLUF-1" value="Generate Monthly Attendance Report" style="ellipse;whiteSpace=wrap;html=1;fontSize=20;fontStyle=1;strokeWidth=2;" parent="1" vertex="1">
          <mxGeometry x="-8104.130000000001" y="6490" width="417.59" height="75" as="geometry" />
        </mxCell>
        <mxCell id="841YpcAVTE6Q28CKTLUF-2" value="" style="endArrow=open;dashed=1;html=1;rounded=0;exitX=0;exitY=0.5;exitDx=0;exitDy=0;entryX=1;entryY=0.5;entryDx=0;entryDy=0;endFill=0;endSize=12;fontSize=20;fontStyle=1;strokeWidth=2;" parent="1" source="841YpcAVTE6Q28CKTLUF-1" target="1_gvQA9Mw1F-bFMWtdlo-2" edge="1">
          <mxGeometry width="50" height="50" relative="1" as="geometry">
            <mxPoint x="-8253" y="6638" as="sourcePoint" />
            <mxPoint x="-8428" y="6556" as="targetPoint" />
          </mxGeometry>
        </mxCell>
        <mxCell id="841YpcAVTE6Q28CKTLUF-3" value="&lt;font style=&quot;font-size: 20px;&quot;&gt;&amp;lt;&amp;lt;extend&amp;gt;&amp;gt;&lt;/font&gt;" style="text;html=1;align=center;verticalAlign=middle;resizable=0;points=[];autosize=1;strokeColor=none;fillColor=none;fontSize=20;fontStyle=1;strokeWidth=2;" parent="1" vertex="1">
          <mxGeometry x="-8412.7" y="6500" width="130" height="40" as="geometry" />
        </mxCell>
        <mxCell id="-G4rrCkpsBZ4Xn79IEvE-2" value="&lt;span style=&quot;font-size: 20px;&quot;&gt;View Leave Report&amp;nbsp;&lt;/span&gt;" style="ellipse;whiteSpace=wrap;html=1;fontSize=20;fontStyle=1;strokeWidth=2;" parent="1" vertex="1">
          <mxGeometry x="-8870" y="4400" width="239.66" height="70" as="geometry" />
        </mxCell>
        <mxCell id="-G4rrCkpsBZ4Xn79IEvE-3" value="&lt;span style=&quot;font-size: 20px;&quot;&gt;View Attendance Report&lt;/span&gt;" style="ellipse;whiteSpace=wrap;html=1;fontSize=20;fontStyle=1;strokeWidth=2;" parent="1" vertex="1">
          <mxGeometry x="-8540.87" y="4400" width="258.17" height="70" as="geometry" />
        </mxCell>
        <mxCell id="-G4rrCkpsBZ4Xn79IEvE-4" value="" style="endArrow=none;dashed=1;html=1;rounded=0;exitX=0.5;exitY=0;exitDx=0;exitDy=0;startArrow=open;startFill=0;startSize=12;entryX=0.207;entryY=0.918;entryDx=0;entryDy=0;entryPerimeter=0;fontSize=20;fontStyle=1;strokeWidth=2;" parent="1" source="-G4rrCkpsBZ4Xn79IEvE-2" target="4M92p2UmULwdYSb-Y5CH-28" edge="1">
          <mxGeometry width="50" height="50" relative="1" as="geometry">
            <mxPoint x="-8556.84" y="4362" as="sourcePoint" />
            <mxPoint x="-8677.84" y="4280" as="targetPoint" />
          </mxGeometry>
        </mxCell>
        <mxCell id="-G4rrCkpsBZ4Xn79IEvE-5" value="&lt;font style=&quot;font-size: 20px;&quot;&gt;&amp;lt;&amp;lt;include&amp;gt;&amp;gt;&lt;/font&gt;" style="text;html=1;align=center;verticalAlign=middle;resizable=0;points=[];autosize=1;strokeColor=none;fillColor=none;fontSize=20;fontStyle=1;strokeWidth=2;" parent="1" vertex="1">
          <mxGeometry x="-8790.369999999999" y="4300" width="130" height="40" as="geometry" />
        </mxCell>
        <mxCell id="-G4rrCkpsBZ4Xn79IEvE-6" value="" style="endArrow=none;dashed=1;html=1;rounded=0;exitX=0.5;exitY=0;exitDx=0;exitDy=0;startArrow=open;startFill=0;startSize=12;entryX=0.648;entryY=0.961;entryDx=0;entryDy=0;entryPerimeter=0;fontSize=20;fontStyle=1;strokeWidth=2;" parent="1" source="-G4rrCkpsBZ4Xn79IEvE-3" target="4M92p2UmULwdYSb-Y5CH-28" edge="1">
          <mxGeometry width="50" height="50" relative="1" as="geometry">
            <mxPoint x="-8740" y="4410" as="sourcePoint" />
            <mxPoint x="-8656" y="4294" as="targetPoint" />
          </mxGeometry>
        </mxCell>
        <mxCell id="-G4rrCkpsBZ4Xn79IEvE-7" value="&lt;font style=&quot;font-size: 20px;&quot;&gt;&amp;lt;&amp;lt;include&amp;gt;&amp;gt;&lt;/font&gt;" style="text;html=1;align=center;verticalAlign=middle;resizable=0;points=[];autosize=1;strokeColor=none;fillColor=none;fontSize=20;fontStyle=1;strokeWidth=2;" parent="1" vertex="1">
          <mxGeometry x="-8502.679999999998" y="4300" width="130" height="40" as="geometry" />
        </mxCell>
        <mxCell id="v186q1AyJ9BGLf2qmUNI-1" value="View Personal Details" style="ellipse;whiteSpace=wrap;html=1;fontSize=20;fontStyle=1;strokeWidth=2;" parent="1" vertex="1">
          <mxGeometry x="-8936.159999999998" y="1680" width="265" height="70" as="geometry" />
        </mxCell>
        <mxCell id="v186q1AyJ9BGLf2qmUNI-2" value="View Salary/OT/Increment&lt;div&gt;/Bonus/NoPay&lt;/div&gt;" style="ellipse;whiteSpace=wrap;html=1;fontSize=20;fontStyle=1;strokeWidth=2;" parent="1" vertex="1">
          <mxGeometry x="-8604.31" y="1660" width="324.31" height="70" as="geometry" />
        </mxCell>
        <mxCell id="v186q1AyJ9BGLf2qmUNI-3" value="View Task/Meeting&lt;div&gt;/EPF&amp;amp;ETF/Promotion&lt;/div&gt;" style="ellipse;whiteSpace=wrap;html=1;fontSize=20;fontStyle=1;strokeWidth=2;" parent="1" vertex="1">
          <mxGeometry x="-8761.59" y="1780" width="311.59" height="70" as="geometry" />
        </mxCell>
        <mxCell id="v186q1AyJ9BGLf2qmUNI-5" value="" style="endArrow=none;dashed=1;html=1;dashPattern=1 3;strokeWidth=2;rounded=0;entryX=0.5;entryY=0;entryDx=0;entryDy=0;exitX=0.183;exitY=0.859;exitDx=0;exitDy=0;exitPerimeter=0;fontSize=20;startArrow=open;startFill=0;startSize=12;fontStyle=1" parent="1" source="qywmRbYdawK2gE5V6afP-1" target="v186q1AyJ9BGLf2qmUNI-1" edge="1">
          <mxGeometry width="50" height="50" relative="1" as="geometry">
            <mxPoint x="-8477" y="1360" as="sourcePoint" />
            <mxPoint x="-8155" y="1800" as="targetPoint" />
          </mxGeometry>
        </mxCell>
        <mxCell id="v186q1AyJ9BGLf2qmUNI-6" value="&lt;font style=&quot;font-size: 20px;&quot;&gt;&amp;lt;&amp;lt;extend&amp;gt;&amp;gt;&lt;/font&gt;" style="text;html=1;align=center;verticalAlign=middle;resizable=0;points=[];autosize=1;strokeColor=none;fillColor=none;fontSize=20;fontStyle=1;strokeWidth=2;" parent="1" vertex="1">
          <mxGeometry x="-8868.659999999998" y="1640" width="130" height="40" as="geometry" />
        </mxCell>
        <mxCell id="v186q1AyJ9BGLf2qmUNI-7" value="" style="endArrow=none;dashed=1;html=1;dashPattern=1 3;strokeWidth=2;rounded=0;entryX=0.5;entryY=0;entryDx=0;entryDy=0;exitX=1;exitY=0.5;exitDx=0;exitDy=0;fontSize=20;startArrow=open;startFill=0;startSize=12;fontStyle=1" parent="1" source="qywmRbYdawK2gE5V6afP-1" target="v186q1AyJ9BGLf2qmUNI-2" edge="1">
          <mxGeometry width="50" height="50" relative="1" as="geometry">
            <mxPoint x="-8477" y="1360" as="sourcePoint" />
            <mxPoint x="-8155" y="1800" as="targetPoint" />
          </mxGeometry>
        </mxCell>
        <mxCell id="v186q1AyJ9BGLf2qmUNI-8" value="&lt;font style=&quot;font-size: 20px;&quot;&gt;&amp;lt;&amp;lt;extend&amp;gt;&amp;gt;&lt;/font&gt;" style="text;html=1;align=center;verticalAlign=middle;resizable=0;points=[];autosize=1;strokeColor=none;fillColor=none;fontSize=20;fontStyle=1;strokeWidth=2;" parent="1" vertex="1">
          <mxGeometry x="-8502.489999999998" y="1610" width="130" height="40" as="geometry" />
        </mxCell>
        <mxCell id="v186q1AyJ9BGLf2qmUNI-9" value="" style="endArrow=none;dashed=1;html=1;dashPattern=1 3;strokeWidth=2;rounded=0;exitX=0.5;exitY=1;exitDx=0;exitDy=0;fontSize=20;startArrow=open;startFill=0;startSize=12;fontStyle=1" parent="1" source="qywmRbYdawK2gE5V6afP-1" target="v186q1AyJ9BGLf2qmUNI-3" edge="1">
          <mxGeometry width="50" height="50" relative="1" as="geometry">
            <mxPoint x="-8477" y="1360" as="sourcePoint" />
            <mxPoint x="-8155" y="1800" as="targetPoint" />
          </mxGeometry>
        </mxCell>
        <mxCell id="v186q1AyJ9BGLf2qmUNI-10" value="&lt;font style=&quot;font-size: 20px;&quot;&gt;&amp;lt;&amp;lt;extend&amp;gt;&amp;gt;&lt;/font&gt;" style="text;html=1;align=center;verticalAlign=middle;resizable=0;points=[];autosize=1;strokeColor=none;fillColor=none;fontSize=20;fontStyle=1;strokeWidth=2;" parent="1" vertex="1">
          <mxGeometry x="-8687.589999999998" y="1730" width="130" height="40" as="geometry" />
        </mxCell>
      </root>
    </mxGraphModel>
  </diagram>
  <diagram id="NRUbhV6aEsxnClWTCadB" name="Page-3">
    <mxGraphModel dx="1050" dy="522" grid="1" gridSize="10" guides="1" tooltips="1" connect="1" arrows="1" fold="1" page="1" pageScale="1" pageWidth="827" pageHeight="1169" math="0" shadow="0">
      <root>
        <mxCell id="0" />
        <mxCell id="1" parent="0" />
      </root>
    </mxGraphModel>
  </diagram>
</mxfile>
